<?xml version="1.0" encoding="UTF-8" standalone="no"?>
<!-- Created with Inkscape (http://www.inkscape.org/) -->

<svg
   width="8.7732811mm"
   height="7.5278192mm"
   viewBox="0 0 8.7732811 7.5278192"
   version="1.1"
   id="svg5370"
   inkscape:version="1.2.2 (732a01da63, 2022-12-09)"
   sodipodi:docname="Benthic_invertebrate.svg"
   inkscape:export-filename="Benthic_invertebrate.png"
   inkscape:export-xdpi="7237.8848"
   inkscape:export-ydpi="7237.8848"
   xmlns:inkscape="http://www.inkscape.org/namespaces/inkscape"
   xmlns:sodipodi="http://sodipodi.sourceforge.net/DTD/sodipodi-0.dtd"
   xmlns="http://www.w3.org/2000/svg"
   xmlns:svg="http://www.w3.org/2000/svg">
  <sodipodi:namedview
     id="namedview5372"
     pagecolor="#ffffff"
     bordercolor="#000000"
     borderopacity="0.25"
     inkscape:showpageshadow="2"
     inkscape:pageopacity="0.0"
     inkscape:pagecheckerboard="0"
     inkscape:deskcolor="#d1d1d1"
     inkscape:document-units="mm"
     showgrid="false"
     inkscape:zoom="0.75544332"
     inkscape:cx="-167.45134"
     inkscape:cy="-84.718467"
     inkscape:window-width="1649"
     inkscape:window-height="1024"
     inkscape:window-x="2022"
     inkscape:window-y="0"
     inkscape:window-maximized="0"
     inkscape:current-layer="layer1" />
  <defs
     id="defs5367" />
  <g
     inkscape:label="Layer 1"
     inkscape:groupmode="layer"
     id="layer1"
     transform="translate(-149.71713,-171.35402)">
    <g
       id="g151676-2-0-5"
       transform="matrix(0.05211972,-0.01489,-0.01168921,-0.04389108,150.4164,179.80166)"
       style="display:inline;fill:#804d00;fill-opacity:1;stroke:#662506;stroke-opacity:1"
       inkscape:export-filename="C:\Users\rden\OneDrive - Danmarks Tekniske Universitet\Ph.D\Project_2\Cephalopods_modelling\Figure\sketch_FEISTY.png"
       inkscape:export-xdpi="1010.2"
       inkscape:export-ydpi="1010.2"
       inkscape:label="Benthos">
      <path
         d="m 87.023,160.309 c 0,0 9.071,-0.781 12.5,-3.41 3.372,-2.578 5.329,-6.887 6.442,-10.984 1.258,-4.629 0,-14.395 0,-14.395 L 88.289,9.731"
         style="fill:#804d00;fill-opacity:1;fill-rule:nonzero;stroke:#662506;stroke-opacity:1"
         id="path151678-0-2-0" />
      <g
         id="g151680-4-4-3"
         transform="matrix(1,0,0,-1,0,170.07873)"
         style="fill:#804d00;fill-opacity:1;stroke:#662506;stroke-opacity:1">
        <path
           d="m 87.023,9.77 c 0,0 9.071,0.781 12.5,3.41 3.372,2.578 5.329,6.886 6.442,10.984 1.258,4.629 0,14.395 0,14.395 L 88.289,160.348"
           style="fill:#804d00;fill-opacity:1;stroke:#662506;stroke-width:2.45197;stroke-linecap:butt;stroke-linejoin:miter;stroke-miterlimit:4;stroke-dasharray:none;stroke-opacity:1"
           id="path151682-3-6-3" />
      </g>
      <path
         d="m 81.023,160.309 c 0,0 -4.48,-0.387 -8.335,-1.527 -1.629,-0.485 -3.145,-1.102 -4.165,-1.883 -1.574,-1.203 -2.839,-2.781 -3.851,-4.543 -1.164,-2.012 -1.996,-4.254 -2.59,-6.441 -1.258,-4.629 0,-14.395 0,-14.395 L 79.758,9.731"
         style="fill:#804d00;fill-opacity:1;fill-rule:nonzero;stroke:#662506;stroke-opacity:1"
         id="path151684-4-7-0" />
      <g
         id="g151686-7-51-6"
         transform="matrix(1,0,0,-1,0,170.07873)"
         style="fill:#804d00;fill-opacity:1;stroke:#662506;stroke-opacity:1">
        <path
           d="m 81.023,9.77 c 0,0 -4.48,0.386 -8.335,1.527 -1.629,0.484 -3.145,1.101 -4.165,1.883 -1.574,1.203 -2.839,2.781 -3.851,4.543 -1.164,2.011 -1.996,4.254 -2.59,6.441 -1.258,4.629 0,14.395 0,14.395 l 17.676,121.789"
           style="fill:#804d00;fill-opacity:1;stroke:#662506;stroke-width:2.45197;stroke-linecap:butt;stroke-linejoin:miter;stroke-miterlimit:4;stroke-dasharray:none;stroke-opacity:1"
           id="path151688-5-7-6" />
      </g>
      <g
         id="g151690-0-1-2"
         transform="matrix(1,0,0,-1,0,170.07873)"
         style="fill:#804d00;fill-opacity:1;stroke:#662506;stroke-opacity:1">
        <path
           d="m 81.023,9.77 h 6"
           style="fill:#804d00;fill-opacity:1;stroke:#662506;stroke-width:2.45197;stroke-linecap:butt;stroke-linejoin:miter;stroke-miterlimit:4;stroke-dasharray:none;stroke-opacity:1"
           id="path151692-6-4-6" />
      </g>
      <path
         d="m 106.473,138.751 c 0,0 1.855,3.136 3.882,4.015 3.485,1.512 8.016,1.481 11.387,-0.265 3.059,-1.586 5.106,-5.024 6.16,-8.305 1.61,-5.016 -0.269,-15.805 -0.269,-15.805 L 91.539,32.243"
         style="fill:#804d00;fill-opacity:1;fill-rule:nonzero;stroke:#662506;stroke-opacity:1"
         id="path151694-2-6-9" />
      <g
         id="g151696-0-9-7"
         transform="matrix(1,0,0,-1,0,170.07873)"
         style="fill:#804d00;fill-opacity:1;stroke:#662506;stroke-opacity:1">
        <path
           d="m 106.473,31.328 c 0,0 1.855,-3.137 3.882,-4.015 3.485,-1.512 8.016,-1.481 11.387,0.265 3.059,1.586 5.106,5.024 6.16,8.305 1.61,5.015 -0.269,15.805 -0.269,15.805 l -36.094,86.148"
           style="fill:#804d00;fill-opacity:1;stroke:#662506;stroke-width:1.88504;stroke-linecap:butt;stroke-linejoin:miter;stroke-miterlimit:4;stroke-dasharray:none;stroke-opacity:1"
           id="path151698-2-0-3" />
      </g>
      <path
         d="m 127.633,118.391 c 0,0 2.68,3.602 4.656,4.418 2.57,1.059 5.895,1.52 8.336,0.188 2.863,-1.559 4.227,-5.196 5.113,-8.332 0.926,-3.282 0.965,-6.957 0,-10.231 C 136.02,71.469 89.566,17.852 89.566,17.852"
         style="fill:#804d00;fill-opacity:1;fill-rule:nonzero;stroke:#662506;stroke-opacity:1"
         id="path151700-2-5-4" />
      <g
         id="g151702-0-4-9"
         transform="matrix(1,0,0,-1,0,170.07873)"
         style="fill:#804d00;fill-opacity:1;stroke:#662506;stroke-opacity:1">
        <path
           d="m 127.633,51.688 c 0,0 2.68,-3.602 4.656,-4.418 2.57,-1.059 5.895,-1.52 8.336,-0.188 2.863,1.559 4.227,5.195 5.113,8.332 0.926,3.281 0.965,6.957 0,10.231 -9.718,32.964 -56.172,86.582 -56.172,86.582"
           style="fill:#804d00;fill-opacity:1;stroke:#662506;stroke-width:1.88504;stroke-linecap:butt;stroke-linejoin:miter;stroke-miterlimit:4;stroke-dasharray:none;stroke-opacity:1"
           id="path151704-0-0-9" />
      </g>
      <path
         d="m 144.844,102.231 c 0,0 3.992,0.859 6.008,0.215 1.566,-0.496 3.14,-1.563 3.882,-3.027 1,-1.973 0.895,-4.536 0.192,-6.629 C 143.633,59.137 88.289,9.731 88.289,9.731"
         style="fill:#804d00;fill-opacity:1;fill-rule:nonzero;stroke:#662506;stroke-opacity:1"
         id="path151706-6-3-8" />
      <g
         id="g151708-1-7-4"
         transform="matrix(1,0,0,-1,0,170.07873)"
         style="fill:#804d00;fill-opacity:1;stroke:#662506;stroke-opacity:1">
        <path
           d="m 144.844,67.848 c 0,0 3.992,-0.86 6.008,-0.215 1.566,0.496 3.14,1.562 3.882,3.027 1,1.973 0.895,4.535 0.192,6.629 -11.293,33.652 -66.637,83.059 -66.637,83.059"
           style="fill:#804d00;fill-opacity:1;stroke:#662506;stroke-width:1.60158;stroke-linecap:butt;stroke-linejoin:miter;stroke-miterlimit:4;stroke-dasharray:none;stroke-opacity:1"
           id="path151710-1-8-4" />
      </g>
      <path
         d="m 153.523,89.188 c 0,0 4.641,0.074 6.516,-1.609 1.93,-1.735 2.164,-4.809 2.461,-7.387 0.277,-2.395 0.48,-5.074 -0.664,-7.195 C 148.961,49.051 103.039,23.782 103.039,23.782"
         style="fill:#804d00;fill-opacity:1;fill-rule:nonzero;stroke:#662506;stroke-opacity:1"
         id="path151712-2-7-5" />
      <g
         id="g151714-1-2-6"
         transform="matrix(1,0,0,-1,0,170.07873)"
         style="fill:#804d00;fill-opacity:1;stroke:#662506;stroke-opacity:1">
        <path
           d="m 153.523,80.891 c 0,0 4.641,-0.075 6.516,1.609 1.93,1.734 2.164,4.809 2.461,7.387 0.277,2.394 0.48,5.074 -0.664,7.195 -12.875,23.945 -58.797,49.215 -58.797,49.215"
           style="fill:#804d00;fill-opacity:1;stroke:#662506;stroke-width:1.03465;stroke-linecap:butt;stroke-linejoin:miter;stroke-miterlimit:4;stroke-dasharray:none;stroke-opacity:1"
           id="path151716-8-3-8" />
      </g>
      <path
         d="m 159.188,68.922 c 0,0 2.855,-1.492 3.785,-2.746 1.863,-2.507 3.062,-5.711 3.078,-8.855 0.015,-2.649 0.179,-4.805 -0.883,-6.844 -1.473,-2.812 -7.059,-6.39 -7.059,-6.39 L 98.176,19.032"
         style="fill:#804d00;fill-opacity:1;fill-rule:nonzero;stroke:#662506;stroke-opacity:1"
         id="path151718-8-1-2" />
      <g
         id="g151720-8-0-1"
         transform="matrix(1,0,0,-1,0,170.07873)"
         style="fill:#804d00;fill-opacity:1;stroke:#662506;stroke-opacity:1">
        <path
           d="m 159.188,101.156 c 0,0 2.855,1.492 3.785,2.746 1.863,2.508 3.062,5.711 3.078,8.856 0.015,2.648 0.179,4.805 -0.883,6.844 -1.473,2.812 -7.059,6.39 -7.059,6.39 l -59.933,25.055"
           style="fill:#804d00;fill-opacity:1;stroke:#662506;stroke-width:1.60158;stroke-linecap:butt;stroke-linejoin:miter;stroke-miterlimit:4;stroke-dasharray:none;stroke-opacity:1"
           id="path151722-0-6-2" />
      </g>
      <path
         d="m 61.574,138.415 c 0,0 -1.855,3.472 -3.886,4.351 -3.481,1.512 -8.012,1.481 -11.383,-0.265 -3.059,-1.586 -5.106,-5.024 -6.16,-8.305 -1.61,-5.016 0.269,-15.805 0.269,-15.805 l 36.059,-86.25"
         style="fill:#804d00;fill-opacity:1;fill-rule:nonzero;stroke:#662506;stroke-opacity:1"
         id="path151724-1-2-2" />
      <g
         id="g151726-6-89-7"
         transform="matrix(1,0,0,-1,0,170.07873)"
         style="fill:#804d00;fill-opacity:1;stroke:#662506;stroke-opacity:1">
        <path
           d="m 61.574,31.664 c 0,0 -1.855,-3.473 -3.886,-4.351 -3.481,-1.512 -8.012,-1.481 -11.383,0.265 -3.059,1.586 -5.106,5.024 -6.16,8.305 -1.61,5.015 0.269,15.805 0.269,15.805 l 36.059,86.25"
           style="fill:#804d00;fill-opacity:1;stroke:#662506;stroke-width:1.88504;stroke-linecap:butt;stroke-linejoin:miter;stroke-miterlimit:4;stroke-dasharray:none;stroke-opacity:1"
           id="path151728-4-1-2" />
      </g>
      <path
         d="m 40.414,118.391 c 0,0 -2.68,3.602 -4.66,4.418 -2.566,1.059 -5.891,1.52 -8.332,0.188 -2.863,-1.559 -4.227,-5.196 -5.113,-8.332 -0.926,-3.282 -0.965,-6.957 0,-10.231 9.718,-32.965 56.238,-86.582 56.238,-86.582"
         style="fill:#804d00;fill-opacity:1;fill-rule:nonzero;stroke:#662506;stroke-opacity:1"
         id="path151730-3-2-8" />
      <g
         id="g151732-7-1-9"
         transform="matrix(1,0,0,-1,0,170.07873)"
         style="fill:#804d00;fill-opacity:1;stroke:#662506;stroke-opacity:1">
        <path
           d="m 40.414,51.688 c 0,0 -2.68,-3.602 -4.66,-4.418 -2.566,-1.059 -5.891,-1.52 -8.332,-0.188 -2.863,1.559 -4.227,5.195 -5.113,8.332 -0.926,3.281 -0.965,6.957 0,10.231 9.718,32.964 56.238,86.582 56.238,86.582"
           style="fill:#804d00;fill-opacity:1;stroke:#662506;stroke-width:2.1685;stroke-linecap:butt;stroke-linejoin:miter;stroke-miterlimit:4;stroke-dasharray:none;stroke-opacity:1"
           id="path151734-8-9-5" />
      </g>
      <path
         d="m 23.172,102.165 c 0,0 -3.961,0.925 -5.977,0.281 -1.566,-0.496 -3.144,-1.563 -3.882,-3.027 -1,-1.973 -0.895,-4.536 -0.192,-6.629 C 24.414,59.137 79.758,9.731 79.758,9.731"
         style="fill:#804d00;fill-opacity:1;fill-rule:nonzero;stroke:#662506;stroke-opacity:1"
         id="path151736-5-1-6" />
      <g
         id="g151738-5-9-5"
         transform="matrix(1,0,0,-1,0,170.07873)"
         style="fill:#804d00;fill-opacity:1;stroke:#662506;stroke-opacity:1">
        <path
           d="m 23.172,67.914 c 0,0 -3.961,-0.926 -5.977,-0.281 -1.566,0.496 -3.144,1.562 -3.882,3.027 -1,1.973 -0.895,4.535 -0.192,6.629 11.293,33.652 66.637,83.059 66.637,83.059"
           style="fill:#804d00;fill-opacity:1;stroke:#662506;stroke-width:1.60158;stroke-linecap:butt;stroke-linejoin:miter;stroke-miterlimit:4;stroke-dasharray:none;stroke-opacity:1"
           id="path151740-6-9-1" />
      </g>
      <path
         d="m 14.656,88.856 c 0,0 -4.773,0.406 -6.648,-1.277 C 6.078,85.844 5.844,82.77 5.547,80.192 5.27,77.797 5.066,75.118 6.207,72.997 19.086,49.051 65.688,23.106 65.688,23.106"
         style="fill:#804d00;fill-opacity:1;fill-rule:nonzero;stroke:#662506;stroke-opacity:1"
         id="path151742-1-0-3" />
      <g
         id="g151744-0-30-4"
         transform="matrix(1,0,0,-1,0,170.07873)"
         style="fill:#804d00;fill-opacity:1;stroke:#662506;stroke-opacity:1">
        <path
           d="m 14.656,81.223 c 0,0 -4.773,-0.407 -6.648,1.277 -1.93,1.734 -2.164,4.809 -2.461,7.387 -0.277,2.394 -0.481,5.074 0.66,7.195 12.879,23.945 59.481,49.891 59.481,49.891"
           style="fill:#804d00;fill-opacity:1;stroke:#662506;stroke-width:1.31811;stroke-linecap:butt;stroke-linejoin:miter;stroke-miterlimit:4;stroke-dasharray:none;stroke-opacity:1"
           id="path151746-2-7-3" />
      </g>
      <path
         d="m 9.203,68.38 c 0,0 -2.828,-0.352 -4.129,-2.204 -1.812,-2.57 -1.914,-6.14 -1.707,-9.281 0.176,-2.648 1,-5.359 2.461,-7.574 1.805,-2.727 7.387,-6.441 7.387,-6.441 L 70.086,18.915"
         style="fill:#804d00;fill-opacity:1;fill-rule:nonzero;stroke:#662506;stroke-opacity:1"
         id="path151748-9-0-3" />
      <g
         id="g151750-4-0-1"
         transform="matrix(1,0,0,-1,0,170.07873)"
         style="fill:#804d00;fill-opacity:1;stroke:#662506;stroke-opacity:1">
        <path
           d="m 9.203,101.699 c 0,0 -2.828,0.352 -4.129,2.203 -1.812,2.571 -1.914,6.141 -1.707,9.282 0.176,2.648 1,5.359 2.461,7.574 1.805,2.726 7.387,6.441 7.387,6.441 l 56.871,23.965"
           style="fill:#804d00;fill-opacity:1;stroke:#662506;stroke-width:1.31811;stroke-linecap:butt;stroke-linejoin:miter;stroke-miterlimit:4;stroke-dasharray:none;stroke-opacity:1"
           id="path151752-0-79-2" />
      </g>
      <path
         d="m 79.488,10.348 c 0,0 1.742,-2.496 4.688,-2.547 2.988,-0.054 4.246,2.364 4.246,2.364"
         style="fill:#804d00;fill-opacity:1;fill-rule:nonzero;stroke:#662506;stroke-opacity:1"
         id="path151754-5-0-2" />
      <g
         id="g151756-6-6-1"
         transform="matrix(1,0,0,-1,0,170.07873)"
         style="fill:#804d00;fill-opacity:1;stroke:#662506;stroke-opacity:1">
        <path
           d="m 79.488,159.73 c 0,0 1.742,2.497 4.688,2.547 2.988,0.055 4.246,-2.363 4.246,-2.363"
           style="fill:#804d00;fill-opacity:1;stroke:#662506;stroke-width:2.45197;stroke-linecap:butt;stroke-linejoin:miter;stroke-miterlimit:4;stroke-dasharray:none;stroke-opacity:1"
           id="path151758-8-8-7" />
      </g>
      <path
         d="m 49.309,27.633 c 0,0 2.117,-6.742 2.179,-10.226 0.063,-3.621 -2.457,-7.711 -1.777,-11.27 0.09,-0.476 0.164,-1.211 0.59,-1.433 8.914,-4.657 25.859,6.437 29.484,1.789"
         style="fill:#804d00;fill-opacity:1;fill-rule:nonzero;stroke:#662506;stroke-opacity:1"
         id="path151760-7-3-3" />
      <g
         id="g151762-0-3-7"
         transform="matrix(1,0,0,-1,0,170.07873)"
         style="fill:#804d00;fill-opacity:1;stroke:#662506;stroke-opacity:1">
        <path
           d="m 49.309,142.445 c 0,0 2.117,6.743 2.179,10.227 0.063,3.621 -2.457,7.711 -1.777,11.269 0.09,0.477 0.164,1.211 0.59,1.434 8.914,4.656 25.859,-6.437 29.484,-1.789"
           style="fill:#804d00;fill-opacity:1;stroke:#662506;stroke-width:1.31811;stroke-linecap:butt;stroke-linejoin:miter;stroke-miterlimit:4;stroke-dasharray:none;stroke-opacity:1"
           id="path151764-2-6-4" />
      </g>
      <path
         d="m 119.246,27.633 c 0,0 -2.121,-6.742 -2.18,-10.226 -0.062,-3.621 2.454,-7.711 1.778,-11.27 -0.09,-0.476 -0.332,-1.007 -0.758,-1.234 -8.914,-4.652 -23.504,8.508 -28.816,1.793"
         style="fill:#804d00;fill-opacity:1;fill-rule:nonzero;stroke:#662506;stroke-opacity:1"
         id="path151766-3-1-6" />
      <g
         id="g151768-0-8-7"
         transform="matrix(1,0,0,-1,0,170.07873)"
         style="fill:#804d00;fill-opacity:1;stroke:#662506;stroke-opacity:1">
        <path
           d="m 119.246,142.445 c 0,0 -2.121,6.743 -2.18,10.227 -0.062,3.621 2.454,7.711 1.778,11.269 -0.09,0.477 -0.332,1.008 -0.758,1.235 -8.914,4.652 -23.504,-8.508 -28.816,-1.793"
           style="fill:#804d00;fill-opacity:1;stroke:#662506;stroke-width:1.31811;stroke-linecap:butt;stroke-linejoin:miter;stroke-miterlimit:4;stroke-dasharray:none;stroke-opacity:1"
           id="path151770-3-3-9" />
      </g>
      <path
         d="m 79.785,6.493 c 0,0 1.641,-2.11 4.582,-2.164 2.988,-0.051 4.903,2.367 4.903,2.367"
         style="fill:#804d00;fill-opacity:1;fill-rule:nonzero;stroke:#662506;stroke-opacity:1"
         id="path151772-6-3-1" />
      <g
         id="g151774-9-8-8"
         transform="matrix(1,0,0,-1,0,170.07873)"
         style="fill:#804d00;fill-opacity:1;stroke:#662506;stroke-opacity:1">
        <path
           d="m 79.785,163.586 c 0,0 1.641,2.109 4.582,2.164 2.988,0.051 4.903,-2.367 4.903,-2.367"
           style="fill:#804d00;fill-opacity:1;stroke:#662506;stroke-width:1.31811;stroke-linecap:butt;stroke-linejoin:miter;stroke-miterlimit:4;stroke-dasharray:none;stroke-opacity:1"
           id="path151776-0-06-0" />
      </g>
    </g>
  </g>
</svg>
