<?xml version="1.0" encoding="UTF-8" standalone="no"?>
<!-- Created with Inkscape (http://www.inkscape.org/) -->

<svg
   width="21.916773mm"
   height="8.3510485mm"
   viewBox="0 0 21.916773 8.3510484"
   version="1.1"
   id="svg1"
   inkscape:version="1.2.2 (732a01da63, 2022-12-09)"
   sodipodi:docname="Demersal.svg"
   inkscape:export-filename="Demersal.png"
   inkscape:export-xdpi="2500"
   inkscape:export-ydpi="2500"
   xmlns:inkscape="http://www.inkscape.org/namespaces/inkscape"
   xmlns:sodipodi="http://sodipodi.sourceforge.net/DTD/sodipodi-0.dtd"
   xmlns="http://www.w3.org/2000/svg"
   xmlns:svg="http://www.w3.org/2000/svg">
  <sodipodi:namedview
     id="namedview1"
     pagecolor="#ffffff"
     bordercolor="#000000"
     borderopacity="0.25"
     inkscape:showpageshadow="2"
     inkscape:pageopacity="0.0"
     inkscape:pagecheckerboard="0"
     inkscape:deskcolor="#d1d1d1"
     inkscape:document-units="mm"
     inkscape:zoom="5.6568545"
     inkscape:cx="17.58928"
     inkscape:cy="25.63262"
     inkscape:window-width="1649"
     inkscape:window-height="1024"
     inkscape:window-x="2166"
     inkscape:window-y="23"
     inkscape:window-maximized="0"
     inkscape:current-layer="g172148-1-6-6"
     showgrid="false" />
  <defs
     id="defs1" />
  <g
     inkscape:label="Calque 1"
     inkscape:groupmode="layer"
     id="layer1"
     transform="translate(-101.06373,-55.554351)">
    <g
       id="g172148-1-6-6"
       transform="matrix(-0.10782768,0,0,-0.10901784,123.68432,71.850642)"
       style="display:inline;fill:#228833;fill-opacity:1;stroke:#000000;stroke-width:0.877758;stroke-miterlimit:4;stroke-dasharray:none;stroke-opacity:1"
       inkscape:export-filename="C:\Users\rden\OneDrive - Danmarks Tekniske Universitet\Ph.D\Project_2\Cephalopods_modelling\Figure\sketch_FEISTY.png"
       inkscape:export-xdpi="1010.2"
       inkscape:export-ydpi="1010.2"
       inkscape:label="Demersal">
      <path
         id="path172156-6-9-0"
         style="display:inline;fill:#228833;fill-opacity:1;stroke:#000000;stroke-width:0.877758;stroke-linecap:round;stroke-linejoin:miter;stroke-miterlimit:4;stroke-dasharray:none;stroke-opacity:1"
         d="m 16.827284,107.309 c 0,0 -2.277,-0.704 -2.645,-0.739 -0.371,-0.031 -2.422,-0.547 -3.449,-0.031 -0.508,0.254 -0.9879996,0.805 -1.0039996,1.371 -0.015,0.41 0.3789996,0.742 0.6679996,1.039 0.266,0.27 0.863,0.266 0.938,0.637 0.437,2.129 -2.9459996,3.391 -3.5159996,5.488 -0.1346476,0.49781 0.018756,4.5907 0.3155038,3.92234 0.395,-1.437 -0.1675038,-2.06234 0.4544962,-3.41834 0.882,-1.922 4.4209996,-4.555 4.4209996,-4.555 1.02,-0.011 4.438,3.723 6.997,5.024 3.257,1.652 9.46,2.863 10.414,3.414 1.152,0.668 5.222,3.582 5.222,3.582 0,0 3.617,0.488 5.188,1.34 3.91,2.121 6.261,6.375 9.844,9.008 2.601,1.91 5.851,2.839 8.371,4.855 0.488,0.391 1.711314,0.46634 1.981314,1.03334 M 58.686284,137.965 c 0,0 -2.695,-2.223 -3.48,-3.735 -0.742,-1.433 -1.379,-4.441 -0.996,-4.734 0.543,-0.418 4.125,0.906 6.179,1.395 0.985,0.234 1.934,0.617 2.938,0.734 4.922,0.574 9.949,0.434 14.867,-0.187 6.52,-0.829 17.047,-5.625 19.152,-4.665 1.227,0.555 8.437996,4.915 12.999996,6.579 5.18,1.89 14,4.355 16.098,3.789 2.191,-0.59 6.633,-3.727 7.387,-5.161 0.754,-1.425 3.246,-13.117 3.246,-13.117 0,0 4.023,2.559 6.25,3.364 6.422,2.324 20.074,4.093 20.074,4.093 0.098,-0.019 1.703,-1.019 2.344,-1.75 1.879,-2.136 2.437,-5.195 4.191,-7.433 0.77,-0.977 -0.14,-6.535 -0.14,-6.535 1.449,-0.692 11.418,3.433 17,5.515 4.589,1.715 8.761,4.641 13.539,5.731 2.265,0.515 5.648,1.539 6.961,0.332 3.64,-3.348 1.296,-10.367 1.421,-15.578 0.129,-5.465 1.11,-12.129 -0.71,-16.383 -0.27,-0.633 -0.95,-1.102 -1.61,-1.281 -3.504,-0.942 -15.199,2.207 -22.492,4.5 -4.438,1.394 -12.684,5.453 -12.684,5.453 0.047,-0.934 3.043,-1.457 2.461,-2.461 -0.789,-1.364 -6.144,-9.274 -10.09,-13.172 -0.625,-0.621 -1.25,-1.563 -2.132,-1.563 -3.828,0 -13.211,2.188 -19.649,3.977 -2.359,0.652 -6.914,2.461 -6.914,2.461 0,0 0.922,-1.27 0.852,-1.988 -0.098,-1.02 -1,-1.829 -1.735,-2.543 -3.918,-3.805 -9.687,-5.243 -13.797,-8.84 -1.296,-1.137 -1.691,-3.461 -3.347,-3.949 -1.117,-0.333 -2.278,0.542 -3.348,1.003 -6.808,2.926 -19.284996,11.051 -19.284996,11.051 0,0 1.574,-2.367 2.074,-3.683 0.824,-2.157 1.489,-4.457 1.473,-6.766 -0.004,-1.191 -0.215,-2.445 -0.801,-3.48 -1.254,-2.211 -3.019,-4.704 -5.492,-5.29 -1.84,-0.441 -3.719,0.852 -5.426,1.672 -4.09,1.977 -7.637,4.946 -11.25,7.703 -2.605,1.989 -7.5,6.36 -7.5,6.36 0,0 -6.262,0.469 -9.375,0.871 -3.387,0.437 -6.785,0.887 -10.109,1.676 -6.004,1.422 -11.578,4.562 -17.68,5.488 -1.543,0.234 -3.168,0.246 -4.687,0.617 -3.325,0.817 -6.086,2.727 -9.106,4.137 -2.426,1.137 -4.824,2.32 -7.2339996,3.484 -0.692,0.332 -1.75,0.309 -2.074,1.004 -0.235,0.5 0.066,1.168 0.402,1.606 0.246,0.328 0.82,0.281 1.07,0.605 0.492,0.641 0.731,1.668 1.172,2.344 1.7849996,2.742 7.1329996,6.094 7.1329996,6.094"
         transform="matrix(1,0,0,-1,-3.0913515e-7,212.59842)"
         sodipodi:nodetypes="cccccccccccccccccccccccccccccccccccccccccccscccccccccccccccccccccccccc"
         inkscape:label="path172156-6-9-0" />
    </g>
  </g>
</svg>
