<?xml version="1.0" encoding="UTF-8" standalone="no"?>
<!-- Created with Inkscape (http://www.inkscape.org/) -->

<svg
   width="50.166958mm"
   height="20.304825mm"
   viewBox="0 0 50.166957 20.304825"
   version="1.1"
   id="svg66158"
   inkscape:version="1.2.2 (732a01da63, 2022-12-09)"
   sodipodi:docname="Large_Pelagic_Tuna_Symple.svg"
   inkscape:export-filename="Tuna_2.png"
   inkscape:export-xdpi="306.82346"
   inkscape:export-ydpi="306.82346"
   xmlns:inkscape="http://www.inkscape.org/namespaces/inkscape"
   xmlns:sodipodi="http://sodipodi.sourceforge.net/DTD/sodipodi-0.dtd"
   xmlns="http://www.w3.org/2000/svg"
   xmlns:svg="http://www.w3.org/2000/svg">
  <sodipodi:namedview
     id="namedview66160"
     pagecolor="#ffffff"
     bordercolor="#666666"
     borderopacity="1.0"
     inkscape:pageshadow="2"
     inkscape:pageopacity="0.0"
     inkscape:pagecheckerboard="0"
     inkscape:document-units="mm"
     showgrid="false"
     fit-margin-top="0"
     fit-margin-left="0"
     fit-margin-right="0"
     fit-margin-bottom="0"
     inkscape:zoom="5.1241862"
     inkscape:cx="122.36089"
     inkscape:cy="6.9279294"
     inkscape:window-width="1920"
     inkscape:window-height="1058"
     inkscape:window-x="-6"
     inkscape:window-y="-6"
     inkscape:window-maximized="1"
     inkscape:current-layer="layer3"
     inkscape:showpageshadow="2"
     inkscape:deskcolor="#d1d1d1" />
  <defs
     id="defs66155" />
  <g
     inkscape:groupmode="layer"
     id="layer2"
     inkscape:label="fond"
     transform="translate(-3.2652869,-72.065864)"
     style="display:inline" />
  <g
     inkscape:label="Calque 1"
     inkscape:groupmode="layer"
     id="layer1"
     transform="translate(-57.353001,-243.11477)"
     style="display:inline">
    <g
       id="g35748"
       transform="translate(0.10326843,-0.10326843)">
      <g
         id="g37239">
        <g
           id="g35751" />
        <g
           id="g37244">
          <path
             style="display:inline;fill:#33bbee;fill-opacity:1;stroke:#33bbee;stroke-width:0.264999;stroke-opacity:1"
             d="m 101.48792,259.44668 -0.20653,0.0516 c 0,0 -2.464941,0.56663 -3.717666,0.72288 -1.522435,0.18989 -3.061474,0.23001 -4.595447,0.25817 -1.77281,0.0325 -3.553869,0.0717 -5.318324,-0.10327 -1.931755,-0.19156 -3.849587,-0.55607 -5.731398,-1.03268 -4.057373,-1.02763 -7.946365,-2.63236 -11.927503,-3.9242 -0.859439,-0.27888 -2.58171,-0.82611 -2.58171,-0.82611 l 14.819019,-3.40786 17.245828,0.77452 7.796771,3.97583 -1.08432,0.87778 0.98105,0.41308 z"
             id="path4902"
             sodipodi:nodetypes="ccsssssccccccc" />
          <path
             style="display:inline;fill:#33bbee;fill-opacity:1;stroke-width:0.264583"
             d="m 90.029051,263.10525 c 0,-0.19229 0.22733,-0.81701 0.50519,-1.38826 0.36769,-0.75593 0.42171,-1.09176 0.19844,-1.23382 -0.16872,-0.10735 0.51149,-0.19701 1.51157,-0.19923 1.69396,-0.004 1.7935,0.0276 1.45521,0.45897 -0.341866,0.47168 -0.6416,0.85425 -0.895696,1.09126 -0.472805,0.43114 -0.995004,0.79484 -1.451764,1.09159 -1.1127,0.60918 -1.32291,0.63771 -1.32291,0.17953 z m -15.875,-0.1743 c 2.92511,-0.25598 4.24787,-0.74225 5.62239,-2.06687 1.00229,-0.96591 1.30698,-1.90711 0.61736,-1.90711 -0.20615,0 -0.42249,-0.14299 -0.48074,-0.31776 -0.0583,-0.17476 -0.45513,-0.32586 -0.88195,-0.33577 -0.6638,-0.0154 -0.76634,-0.11294 -0.70908,-0.67443 0.0368,-0.36103 -0.0227,-0.52691 -0.13229,-0.36862 -0.33157,0.47894 -1.3404,0.6196 -1.49802,0.20886 -0.10748,-0.28011 0.0341,-0.33734 0.57823,-0.23376 0.3963,0.0754 0.54196,0.0608 0.32368,-0.0325 -0.21828,-0.0933 -0.6196,-0.28448 -0.89183,-0.42486 -0.32299,-0.16656 -0.43896,-0.16465 -0.33381,0.006 0.26495,0.4287 -1.11903,0.55183 -1.46857,0.13066 -0.17397,-0.20963 -0.58729,-0.32934 -0.91849,-0.26602 -0.33119,0.0633 -0.64214,-0.005 -0.69099,-0.15136 -0.0489,-0.14655 -0.3209,-0.28538 -0.60455,-0.30851 -0.28364,-0.0231 -0.76795,-0.17939 -1.07624,-0.34723 -0.30829,-0.16785 -0.63284,-0.23287 -0.72121,-0.1445 -0.0884,0.0884 -0.32963,0.0205 -0.53611,-0.15088 -0.20648,-0.17136 -0.47725,-0.28636 -0.6017,-0.25555 -0.12446,0.0308 -0.7483,-0.093 -1.3863,-0.27506 -0.63801,-0.1821 -1.43439,-0.26223 -1.76974,-0.17806 -0.33535,0.0842 -1.33483,1.04041 -2.22106,2.12497 -1.63473,2.00058 -3.521489,3.73114 -4.242479,3.89123 -0.21796,0.0484 -0.57489,0.27646 -0.79317,0.50678 -0.21828,0.23033 -0.75406,0.64228 -1.19063,0.91545 l -0.79375,0.49668 0.67843,-0.70391 c 0.37313,-0.38716 1.01819,-1.33489 1.43347,-2.10608 0.41527,-0.77119 1.2401,-2.11654 1.832939,-2.98966 0.97109,-1.43021 1.07671,-1.74479 1.06602,-3.175 -0.0112,-1.4936 -0.12027,-1.76278 -1.844489,-4.55073 -1.00795,-1.62978 -2.07319,-3.08024 -2.3672,-3.22324 -0.39771,-0.19344 -0.42765,-0.26459 -0.11692,-0.27792 0.83319,-0.0357 2.965179,1.69334 5.724769,4.64284 1.94668,2.08063 2.99903,3.01217 3.40283,3.01217 0.66973,0 4.54344,-0.74442 5.13911,-0.9876 0.21828,-0.0891 0.69288,-0.19604 1.05465,-0.23762 0.36178,-0.0416 0.69689,-0.19294 0.7447,-0.33637 0.0478,-0.14342 0.24852,-0.19876 0.44603,-0.12297 0.19751,0.0758 0.63616,-0.0105 0.97478,-0.19169 0.33861,-0.18122 0.91347,-0.35703 1.27744,-0.39067 1.18172,-0.10923 2.02775,-0.29254 2.39349,-0.51858 0.19703,-0.12176 0.6536,-0.23432 1.01461,-0.25013 0.36101,-0.0158 0.6986,-0.15538 0.7502,-0.31018 0.0516,-0.1548 0.40453,-0.22205 0.7843,-0.14945 0.64384,0.12307 0.67778,0.0813 0.50235,-0.61763 -0.29676,-1.18239 -1.11673,-2.14453 -2.88222,-3.38196 -2.14093,-1.50057 -4.09688,-2.29957 -6.24394,-2.55062 -1.55842,-0.18222 -1.61418,-0.20741 -0.52798,-0.23851 2.99854,-0.0858 8.2888,2.09651 11.62412,4.79524 1.35043,1.09268 1.73641,1.27988 2.32766,1.12889 0.38982,-0.0995 1.42315,-0.27156 2.29627,-0.38223 2.15541,-0.27321 3.40847,-0.8842 4.09649,-1.99743 0.31728,-0.51337 0.67157,-0.93341 0.7873,-0.93341 0.24241,0 1.33392,2.43248 1.33392,2.9727 0,0.50887 0.5477,0.99605 1.11979,0.99605 1.56968,0 8.690129,3.73906 10.731469,5.63526 l 0.60646,0.56335 -0.58434,0.44077 -0.58434,0.44077 0.57319,0.18192 c 0.6921,0.21967 0.74159,0.56077 0.11017,0.75929 -0.25467,0.0801 -1.65365,0.55091 -3.10886,1.04631 -3.04229,1.03569 -4.468419,1.36688 -4.230869,0.98251 0.0886,-0.14333 0.421919,-0.26843 0.740759,-0.27801 0.31883,-0.01 -0.0752,-0.19135 -0.875509,-0.40395 -0.80037,-0.2126 -1.61892,-0.59171 -1.81901,-0.84248 -0.33009,-0.41371 -0.34984,-0.39727 -0.21324,0.17748 0.11115,0.46762 0.073,0.55584 -0.14585,0.33702 -0.4757,-0.4757 -0.68042,-2.83978 -0.3062,-3.53596 0.27787,-0.51695 0.26035,-0.63679 -0.1154,-0.78933 -0.99127,-0.4024 -1.57251,-0.23281 -1.74981,0.51057 -0.0954,0.40018 -0.23946,0.94862 -0.32002,1.21875 -0.12133,0.40682 -0.0656,0.44584 0.32493,0.22732 0.3351,-0.18753 0.57236,-0.16288 0.82051,0.0853 0.47348,0.47348 0.44231,1.00845 -0.0478,0.82038 -0.21828,-0.0838 -0.39687,-0.0569 -0.39687,0.0598 0,0.31462 -1.01818,0.18189 -1.37997,-0.17989 -0.24143,-0.24144 -0.23639,-0.31337 0.022,-0.31337 0.22558,0 0.27544,-0.19484 0.15234,-0.59531 -0.10064,-0.32742 -0.21483,-0.63202 -0.25374,-0.67688 -0.0954,-0.10994 -4.44582,-0.81386 -6.01507,-0.97326 -0.77805,-0.079 -1.25677,-0.0225 -1.25677,0.14846 0,0.15188 -0.12101,0.20135 -0.2689,0.10995 -0.1479,-0.0914 -0.2004,-0.27702 -0.11668,-0.41249 0.0837,-0.13547 -0.0235,-0.2463 -0.23822,-0.2463 -0.21474,0 -0.44053,0.14883 -0.50175,0.33073 -0.0881,0.26163 -0.19349,0.26294 -0.5046,0.006 -0.30908,-0.25497 -0.46226,-0.25545 -0.7155,-0.002 -0.2063,0.2063 -0.38965,0.22783 -0.50964,0.0599 -0.22323,-0.31249 -1.10722,-0.32869 -1.59186,-0.0292 -0.32368,0.20004 -5.19835,0.2668 -7.62403,0.10441 -0.64749,-0.0434 -1.04889,0.0345 -0.98745,0.19154 0.1304,0.3333 1.38163,0.92605 1.95478,0.92605 0.23777,0 0.50033,0.068 0.58345,0.15113 0.0831,0.0831 0.8471,0.18151 1.69774,0.21866 1.87768,0.082 3.52951,0.64492 3.53504,1.20471 0.003,0.29187 0.0625,0.31793 0.20702,0.0905 0.15697,-0.24699 0.44082,-0.23606 1.25272,0.0482 0.57736,0.20217 1.34741,0.29635 1.71121,0.20931 0.57823,-0.13835 0.61823,-0.10577 0.31788,0.25894 -0.18897,0.22946 -0.23755,0.48274 -0.10796,0.56283 0.54376,0.33606 3.30843,0.58846 6.31076,0.57613 2.67677,-0.011 3.29882,-0.0905 3.725,-0.4762 0.58371,-0.52827 0.86682,-0.58798 0.86682,-0.18283 0,0.15411 -0.13182,0.19873 -0.29293,0.0992 -0.19481,-0.1204 -0.23615,-0.002 -0.12343,0.35299 0.16329,0.51449 0.0215,0.54087 -3.87426,0.72111 -2.34089,0.1083 -4.62552,0.0803 -5.42526,-0.0665 -0.75983,-0.13948 -1.31835,-0.15142 -1.24116,-0.0265 0.0772,0.1249 -0.0418,0.22709 -0.2644,0.22709 -0.22262,0 -0.91425,0.35657 -1.53697,0.79239 -0.62272,0.43581 -2.20378,1.16236 -3.51347,1.61455 -1.95005,0.67328 -2.8843,0.83765 -5.15937,0.90771 l -2.77813,0.0855 2.51355,-0.21997 z m 9.65729,-3.18023 c 0.0899,-0.14552 0.0304,-0.26459 -0.13229,-0.26459 -0.1627,0 -0.24063,-0.0893 -0.17318,-0.19843 0.0675,-0.10914 -0.21469,-0.19844 -0.62698,-0.19844 -0.69718,0 0.415643,0.0582 0.805343,0.48884 0.46631,0.51527 -0.121893,0.5755 0.127107,0.17262 z m -1.98438,-0.6332 c 0,-0.0572 -0.18477,-0.17489 -0.41061,-0.26156 -0.23546,-0.0904 -0.34167,-0.046 -0.24897,0.10399 0.15538,0.25141 0.65958,0.37186 0.65958,0.15757 z M 101.803,258.66 c -1.16551,-0.26844 -1.71979,-0.81947 -1.71979,-1.70972 0,-0.75047 -0.519029,-0.93698 -1.700049,-0.61088 -1.00969,0.27879 -1.28449,0.76543 -0.43223,0.76543 0.28245,0 0.58714,0.11907 0.67707,0.26459 0.0899,0.14552 0.0136,0.26458 -0.16959,0.26458 -0.5762,0 0.15049,0.5384 1.26095,0.93422 0.563919,0.20101 1.501559,0.35874 2.083639,0.35051 l 1.05834,-0.015 -1.05834,-0.24376 z m 2.77813,-0.52185 c 0.3638,-0.12347 0.98888,-0.28969 1.38906,-0.36936 0.83806,-0.16686 0.98662,-0.66396 0.19844,-0.66396 -0.74193,0 -0.65984,-0.49258 0.13229,-0.79375 1.11778,-0.42497 0.73846,-0.59006 -0.91492,-0.39816 -1.55877,0.18091 -1.58198,0.17374 -2.07839,-0.64256 -0.43801,-0.72024 -0.54497,-0.77376 -0.83878,-0.41975 -0.18521,0.22317 -0.64892,0.55466 -1.03045,0.73664 -0.46372,0.22117 -0.7224,0.58115 -0.78026,1.08581 -0.0847,0.73845 -0.0733,0.74563 0.5219,0.32877 0.92242,-0.64608 1.37366,-0.55307 1.1741,0.24203 -0.15282,0.60891 -0.10843,0.65331 0.50049,0.50048 0.49575,-0.12443 0.66819,-0.0636 0.66819,0.2358 0,0.22193 -0.0893,0.45345 -0.19844,0.51449 -0.21347,0.11939 0.20167,0.002 1.25677,-0.35648 z m 0.0139,-1.05929 c 0.31753,-0.59331 0.69166,-0.66128 0.69166,-0.12564 0,0.20765 -0.21622,0.43409 -0.48048,0.50319 -0.40069,0.10478 -0.43576,0.0421 -0.21118,-0.37755 z m -4.51181,-1.59275 c 0,-0.14552 -0.119059,-0.191 -0.264579,-0.10107 -0.14552,0.0899 -0.26458,0.28259 -0.26458,0.42811 0,0.14552 0.11906,0.191 0.26458,0.10106 0.14552,-0.0899 0.264579,-0.28258 0.264579,-0.4281 z m -27.648959,-0.49794 c -0.0899,-0.14552 -0.27555,-0.26459 -0.41248,-0.26459 -0.13694,0 -0.24897,0.11907 -0.24897,0.26459 0,0.14552 0.18562,0.26458 0.41249,0.26458 0.22687,0 0.3389,-0.11906 0.24896,-0.26458 z m 28.005029,-1.11501 c 0.18401,-0.70365 -0.19695,-0.99213 -1.317409,-0.99761 -0.673,-0.003 -0.85256,0.11895 -0.95397,0.6494 -0.0687,0.3594 -0.0426,0.60259 0.058,0.54043 0.10058,-0.0622 0.52987,-0.009 0.95396,0.11755 1.103989,0.33014 1.091279,0.33327 1.259439,-0.30977 z m -36.411059,0.1614 c -0.0879,-0.0879 -0.31612,-0.0973 -0.50712,-0.0209 -0.21106,0.0845 -0.14837,0.14716 0.15986,0.15985 0.27891,0.0115 0.43518,-0.0511 0.34726,-0.13896 z m 25.68663,6.32912 c 0.191,-0.0764 0.4192,-0.067 0.50712,0.0209 0.0879,0.0879 -0.0683,0.15046 -0.34726,0.13897 -0.30823,-0.0127 -0.37092,-0.0754 -0.15986,-0.15985 z m 5.29167,0 c 0.191,-0.0764 0.4192,-0.067 0.50712,0.0209 0.0879,0.0879 -0.0684,0.15046 -0.34727,0.13897 -0.30822,-0.0127 -0.37092,-0.0754 -0.15985,-0.15985 z m 2.16628,-0.18528 c 0,-0.24058 1.03142,-0.34281 1.35977,-0.13477 0.24477,0.15508 0.0848,0.2294 -0.49988,0.23215 -0.47294,0.002 -0.85989,-0.0416 -0.85989,-0.0974 z m -11.69128,-0.34389 c 0.191,-0.0764 0.4192,-0.067 0.50712,0.0209 0.0879,0.0879 -0.0683,0.15045 -0.34727,0.13896 -0.30822,-0.0127 -0.37092,-0.0754 -0.15985,-0.15985 z"
             id="path1074"
             sodipodi:nodetypes="csscccccccsscsssscsscssscssssccssssccsscsscssscsscsssssssscscsssssscccscsscssscsscscccssssccssssccccscsssscscssssssccsssssscccccscsscscsscssscsscccccsssssssccsssscssssscscscssscccsccccscssssssssssssscscccsssss"
             transform="translate(-1.1458333e-6)" />
        </g>
      </g>
    </g>
    <g
       inkscape:groupmode="layer"
       id="layer3"
       inkscape:label="contour"
       transform="translate(57.353001,243.11477)"
       style="display:inline;fill:none;stroke-width:0.2;stroke-dasharray:none">
      <path
         style="display:inline;fill:none;stroke:#000000;stroke-width:0.2;stroke-dasharray:none"
         d="m 106.54231,256.67857 c -0.021,-0.11 1.06158,-0.67498 1.07708,-0.86713 0.0155,-0.19215 -0.6734,-0.65807 -1.04056,-0.95841 -0.36716,-0.30034 -0.74561,-0.56061 -1.15922,-0.83976 -0.41361,-0.27915 -0.72147,-0.47112 -1.32352,-0.83062 -0.60205,-0.3595 -1.4565,-0.85464 -2.30019,-1.30526 -0.84369,-0.45062 -1.988177,-1.04553 -2.765704,-1.38742 -0.777527,-0.34189 -1.425137,-0.57529 -1.871183,-0.71196 -0.446046,-0.13667 -0.598049,-0.15316 -0.775857,-0.18255 -0.177808,-0.0294 -0.166549,-0.004 -0.282958,-0.0274 -0.116409,-0.0236 -0.272824,-0.0474 -0.408792,-0.12811 -0.135968,-0.0807 -0.285219,-0.23451 -0.374348,-0.36144 -0.08913,-0.12693 -0.148316,-0.26898 -0.167812,-0.37435 -0.0195,-0.10537 0.05258,0.037 0.01291,-0.23235 -0.03967,-0.26932 -0.311836,-0.92543 -0.477615,-1.31667 -0.165779,-0.39124 -0.357357,-0.78155 -0.503436,-1.03269 -0.146079,-0.25114 -0.216452,-0.45962 -0.335621,-0.49052 -0.119169,-0.0309 0.0043,-0.0393 -0.129085,0.0645 -0.13336,0.10375 -0.407543,0.44836 -0.567976,0.65834 -0.160433,0.20998 -0.240729,0.40492 -0.400166,0.59379 -0.159437,0.18887 -0.339761,0.36348 -0.555067,0.52925 -0.215306,0.16577 -0.418388,0.30257 -0.735788,0.4518 -0.3174,0.14923 -0.826405,0.30902 -1.174678,0.40017 -0.348273,0.0911 -0.516559,0.10552 -0.9036,0.16781 -0.387041,0.0623 -0.989701,0.12846 -1.419939,0.19363 -0.430238,0.0652 -0.895962,0.14137 -1.161772,0.19362 -0.26581,0.0523 -0.292982,0.0925 -0.436497,0.099 -0.143515,0.006 -0.24214,-0.002 -0.410747,-0.0548 -0.168607,-0.0524 -0.218972,-0.0659 -0.575048,-0.29209 -0.356076,-0.2262 -1.02589,-0.81794 -1.487818,-1.15922 -0.461928,-0.34128 -0.78744,-0.576 -1.277886,-0.89451 -0.490446,-0.31851 -1.022005,-0.65334 -1.670373,-1.00405 -0.648368,-0.35071 -1.587402,-0.79673 -2.227165,-1.07708 -0.639763,-0.28035 -1.092749,-0.45632 -1.597352,-0.62981 -0.504603,-0.17349 -0.90064,-0.28726 -1.423926,-0.41987 -0.523286,-0.13261 -1.300345,-0.29879 -1.716012,-0.36511 -0.415667,-0.0663 -0.4605,-0.0685 -0.766729,-0.0822 -0.306229,-0.0137 -0.857139,-0.007 -1.067944,0.0183 -0.210805,0.0255 -0.200025,-0.0264 -0.20081,0.0456 -7.85e-4,0.072 0.02535,0.0196 0.219065,0.0548 0.193718,0.0353 0.570272,0.0589 0.949284,0.10953 0.379012,0.0506 0.859406,0.0961 1.32352,0.20081 0.464114,0.1047 0.92129,0.24331 1.451309,0.43813 0.530019,0.19482 1.138376,0.44376 1.716012,0.74847 0.577636,0.30471 1.219463,0.73407 1.734268,1.0862 0.514805,0.35213 0.983412,0.68271 1.360031,1.01318 0.376619,0.33047 0.693108,0.65947 0.912773,0.94016 0.219665,0.28069 0.316376,0.46125 0.438131,0.70283 0.121755,0.24158 0.228192,0.52146 0.292087,0.73935 0.06389,0.21789 0.113445,0.43239 0.109532,0.55679 -0.0039,0.1244 -0.01062,0.13693 -0.04564,0.17343 -0.03502,0.0365 -0.05365,0.0314 -0.118661,0.0365 -0.06501,0.005 -0.135426,-0.0195 -0.264704,-0.0365 -0.129278,-0.017 -0.361342,-0.0727 -0.511152,-0.0639 -0.14981,0.009 -0.307949,0.0476 -0.374237,0.0913 -0.06629,0.0437 -0.03314,0.0412 -0.05477,0.073 -0.02163,0.0318 -0.03266,0.0778 -0.07302,0.11866 -0.04036,0.0408 -0.07856,0.069 -0.173427,0.10953 -0.09487,0.0406 -0.288064,0.0845 -0.40162,0.10041 -0.113556,0.0159 -0.157876,-0.002 -0.273832,0.009 -0.115956,0.0109 -0.285452,0.03 -0.419875,0.0639 -0.134423,0.0339 -0.291633,0.0923 -0.383365,0.13692 -0.09173,0.0447 -0.07443,0.0611 -0.173426,0.10953 -0.099,0.0485 -0.272283,0.10737 -0.429004,0.15517 -0.156721,0.0478 -0.330072,0.0894 -0.511152,0.12779 -0.18108,0.0384 -0.375615,0.0742 -0.575047,0.1004 -0.199432,0.0262 -0.424419,0.0333 -0.620685,0.0548 -0.196266,0.0215 -0.370301,0.0306 -0.556792,0.073 -0.186491,0.0424 -0.400409,0.11824 -0.556791,0.18256 -0.156382,0.0643 -0.267287,0.1406 -0.383364,0.19168 -0.116077,0.0511 -0.179443,0.084 -0.310343,0.11866 -0.1309,0.0347 -0.363108,0.0809 -0.474642,0.073 -0.111534,-0.008 -0.116695,-0.0437 -0.182554,-0.0548 -0.06586,-0.0111 -0.150897,-0.0208 -0.209938,-0.009 -0.05904,0.0118 -0.100768,0.0269 -0.136916,0.0639 -0.03615,0.037 -0.01621,0.0897 -0.06389,0.14604 -0.04768,0.0564 -0.126521,0.1064 -0.237321,0.15518 -0.1108,0.0488 -0.255646,0.0746 -0.429003,0.10953 -0.173357,0.035 -0.413319,0.0469 -0.611558,0.0913 -0.198239,0.0444 -0.224568,0.0768 -0.575046,0.17342 -0.350478,0.0966 -0.855741,0.23665 -1.533458,0.38337 -0.677717,0.14672 -2.389584,0.43839 -2.537508,0.46551 -0.147924,0.0271 -0.702808,0.11663 -0.894517,0.11866 -0.191709,0.002 -0.10224,0.023 -0.246449,-0.0274 -0.144209,-0.0504 -0.279414,-0.13936 -0.565919,-0.35598 -0.286505,-0.21662 -0.5727,-0.47793 -1.104455,-0.99492 -0.531755,-0.51699 -1.389844,-1.47763 -2.04461,-2.14502 -0.654766,-0.66739 -1.314776,-1.33646 -1.880312,-1.86206 -0.565536,-0.5256 -1.079329,-0.98971 -1.496947,-1.30526 -0.417618,-0.31555 -0.729554,-0.48703 -0.967539,-0.62981 -0.237985,-0.14278 -0.302297,-0.18994 -0.447258,-0.24645 -0.144961,-0.0565 -0.299181,-0.0933 -0.410748,-0.10041 -0.111567,-0.007 -0.20973,-0.007 -0.246449,0.0274 -0.03672,0.0348 -0.02474,0.0127 -0.0091,0.0548 0.01564,0.0421 0.13161,0.12271 0.164299,0.13692 0.03269,0.0142 0.07909,-3.7e-4 0.209937,0.0913 0.130843,0.0917 0.309147,0.30136 0.502025,0.52941 0.192878,0.22805 0.32437,0.39915 0.638941,0.84888 0.314571,0.44973 0.778783,1.16762 1.213988,1.87119 0.435205,0.70357 1.124868,1.81114 1.387414,2.35495 0.262546,0.54381 0.243133,0.53226 0.31947,0.83062 0.07634,0.29836 0.109224,0.55715 0.127788,0.94929 0.01856,0.39214 -0.0046,1.0279 -0.05477,1.39654 -0.05022,0.36864 -0.06808,0.50769 -0.191682,0.81236 -0.123597,0.30467 -0.359799,0.62157 -0.584175,0.97667 -0.224376,0.3551 -0.506455,0.75158 -0.766728,1.1501 -0.260273,0.39852 -0.530229,0.80035 -0.794113,1.24137 -0.263884,0.44102 -0.562954,1.03601 -0.784984,1.40567 -0.22203,0.36966 -0.344907,0.56127 -0.529408,0.82149 -0.184501,0.26022 -0.353696,0.4811 -0.575047,0.73935 -0.221351,0.25825 -0.778031,0.76763 -0.757601,0.80324 0.02043,0.0356 0.652699,-0.39033 0.949283,-0.59331 0.296584,-0.20298 0.658611,-0.4748 0.830623,-0.62068 0.172013,-0.14587 0.143106,-0.13984 0.228194,-0.21907 0.08509,-0.0792 0.173261,-0.17679 0.282959,-0.25557 0.109698,-0.0788 0.254705,-0.15593 0.374237,-0.20994 0.119532,-0.054 0.180782,-0.0443 0.337725,-0.11866 0.156943,-0.0744 0.497188,-0.28227 0.584175,-0.35598 0.08699,-0.0737 0.808507,-0.64944 1.195732,-1.01318 0.387225,-0.36374 0.698054,-0.70417 1.12271,-1.16835 0.424656,-0.46418 1.020253,-1.18981 1.414798,-1.62473 0.394545,-0.43492 0.64742,-0.71501 0.940156,-0.99493 0.292736,-0.27992 0.623314,-0.57846 0.80324,-0.6937 0.179926,-0.11524 0.07907,-0.0627 0.20081,-0.0913 0.121741,-0.0286 0.300093,-0.0304 0.529408,-0.0183 0.229315,0.0121 -0.02556,-0.0808 0.83975,0.11866 0.865314,0.19945 3.112419,0.98423 4.262648,1.37829 1.150229,0.39406 1.351163,0.50869 2.647041,0.95841 1.295878,0.44972 4.158275,1.40591 5.13891,1.70689 0.980635,0.30098 0.611645,0.0899 0.711962,0.20081 0.100317,0.11091 0.03257,0.0578 0.02738,0.15517 -0.0052,0.0974 -0.04159,0.23909 -0.118661,0.41075 -0.07707,0.17166 -0.158956,0.32513 -0.374237,0.5933 -0.215281,0.26817 -0.645104,0.68884 -0.967539,0.95841 -0.322435,0.26957 -0.629965,0.48933 -0.949283,0.66632 -0.319318,0.17699 -0.579772,0.27497 -0.949284,0.40162 -0.369512,0.12665 -0.801143,0.2467 -1.268754,0.33773 -0.467611,0.091 -1.010081,0.1352 -1.533458,0.19168 -0.523377,0.0565 -1.110551,0.0987 -1.606479,0.14604 -0.495928,0.0473 -1.390481,0.13125 -1.369159,0.13692 0.02132,0.006 2.948415,-0.10236 3.705856,-0.13692 0.757441,-0.0346 0.432174,-9e-4 0.839751,-0.0456 0.407577,-0.0447 1.026536,-0.13194 1.597352,-0.26471 0.570816,-0.13277 1.295282,-0.36456 1.816418,-0.54766 0.521136,-0.1831 0.81135,-0.31065 1.314392,-0.52941 0.503042,-0.21876 1.242257,-0.54069 1.697757,-0.79411 0.4555,-0.25342 0.805426,-0.54297 1.049689,-0.68458 0.244263,-0.14161 -0.02547,-0.13813 0.392492,-0.20081 0.41796,-0.0627 1.359755,0.26277 2.062866,0.36511 0.703111,0.10234 1.446217,0.19213 2.154145,0.24645 0.707928,0.0543 1.659465,0.0776 2.090248,0.0821 0.430783,0.005 0.409557,-0.0827 0.492897,-0.009 0.08334,0.0737 0.02787,0.0503 0.01826,0.17342 -0.0096,0.12316 -0.06186,0.32867 -0.146045,0.54767 -0.08418,0.219 -0.267913,0.47588 -0.383366,0.74847 -0.115453,0.27259 -0.27188,0.67365 -0.301214,0.88539 -0.02933,0.21174 -0.02092,0.27972 0.01826,0.34685 0.03918,0.0671 0.04412,0.0499 0.100404,0.0639 0.05628,0.014 0.120735,0.007 0.228195,-0.0183 0.10746,-0.0256 0.251712,-0.0923 0.401619,-0.1643 0.149907,-0.072 0.208829,-0.0972 0.492898,-0.27383 0.284069,-0.17664 0.87628,-0.56776 1.186603,-0.82149 0.310323,-0.25373 0.469214,-0.40794 0.693708,-0.66633 0.224494,-0.25839 0.512273,-0.76717 0.730217,-0.86713 0.217945,-0.1 1.873163,-0.0693 2.409721,-0.10956 0.536558,-0.0403 0.398545,-0.0444 0.72109,-0.0822 0.322545,-0.0378 0.680361,-0.0612 1.213988,-0.14605 0.533627,-0.0848 1.419578,-0.27415 1.980724,-0.39249 0.56115,-0.11834 1.08588,-0.21756 1.38741,-0.31034 0.30153,-0.0928 -0.0392,-7.4e-4 0.43813,-0.17343 0.47738,-0.17269 1.78933,-0.58325 2.44623,-0.80324 0.6569,-0.21999 1.04973,-0.35739 1.49695,-0.51115 0.44722,-0.15376 0.9555,-0.30126 1.1866,-0.41075 0.2311,-0.10949 0.18556,-0.0908 0.23732,-0.14604 0.0518,-0.0552 0.0794,-0.0946 0.0821,-0.15517 0.003,-0.0606 -0.02,-0.11767 -0.073,-0.17343 -0.053,-0.0558 -0.0849,-0.0486 -0.24645,-0.11866 -0.16157,-0.0701 -0.70921,-0.17284 -0.73022,-0.28284 z"
         id="path24278"
         transform="translate(-57.353002,-243.11477)"
         sodipodi:nodetypes="zzzzzzzzzzzzzzzzzzzzzzzzzzzzzzzzzzzzzzzzzzzzzzzzzzzzzzzzzzzzzzzzzzzzzzzzzzzzzzzzzzzzzzzzzzzzzzzzzzzzzzzzzzzzzzzzzzzzzzzzzzzzzzzzzzzzzzzzzzzszzzzzzzzzzzzzzzzzzzzzzzzzzzzzzzzzzzzzz" />
    </g>
  </g>
</svg>
