<?xml version="1.0" encoding="UTF-8" standalone="no"?>
<!-- Created with Inkscape (http://www.inkscape.org/) -->

<svg
   width="55.222271mm"
   height="18.694878mm"
   viewBox="0 0 55.222271 18.694878"
   version="1.1"
   id="svg3453"
   inkscape:version="1.2.2 (732a01da63, 2022-12-09)"
   sodipodi:docname="Midwater_predator.svg"
   xmlns:inkscape="http://www.inkscape.org/namespaces/inkscape"
   xmlns:sodipodi="http://sodipodi.sourceforge.net/DTD/sodipodi-0.dtd"
   xmlns="http://www.w3.org/2000/svg"
   xmlns:svg="http://www.w3.org/2000/svg">
  <sodipodi:namedview
     id="namedview3455"
     pagecolor="#ffffff"
     bordercolor="#000000"
     borderopacity="0.25"
     inkscape:showpageshadow="2"
     inkscape:pageopacity="0.0"
     inkscape:pagecheckerboard="0"
     inkscape:deskcolor="#d1d1d1"
     inkscape:document-units="mm"
     showgrid="false"
     inkscape:zoom="3.0217733"
     inkscape:cx="94.646412"
     inkscape:cy="42.028302"
     inkscape:window-width="1920"
     inkscape:window-height="1046"
     inkscape:window-x="1909"
     inkscape:window-y="-11"
     inkscape:window-maximized="1"
     inkscape:current-layer="svg3453" />
  <defs
     id="defs3450" />
  <path
     id="path468"
     style="fill:#004488;fill-opacity:1;stroke:#000000;stroke-width:0.186;stroke-dasharray:none;stroke-opacity:1"
     d="m 0.62604228,14.371872 c 0,0 -0.319129,-0.500637 -0.406775,-0.793211 -0.08765,-0.292574 -0.09714,-0.646179 -0.101694,-0.935585 -0.0046,-0.289405 -0.01062,-0.189629 0.06102,-0.793211 0.100402,0.590095 0.05519,0.491271 0.101694,0.793211 0.0465,0.30194 0.06435,0.757277 0.183049,1.016941 0.118695,0.259663 0.427114,0.528804 0.427114,0.528804 m -0.164156,-3.954741 -0.183049,0.813551 c 0,0 -0.01891,0.667298 0,0.955924 0.01891,0.288625 0.0016,0.529928 0.101694,0.772872 0.0354,-0.303556 0.01031,-0.23728 0.02034,-0.447453 0.01003,-0.210173 0.01579,-0.565896 0.04068,-0.813551 0.02489,-0.247654 0.101694,-0.671177 0.101694,-0.671177 l 0.162709,-0.447454 M 29.799737,12.713157 c 0,0 1.299178,1.128224 1.984669,1.423785 0.685491,0.295562 1.323466,0.354753 1.999052,0.388309 0.675583,0.03354 1.313288,-0.01217 2.013432,-0.186972 0.700137,-0.174791 1.503727,-0.587819 2.128484,-0.891659 0.624758,-0.30384 0.823279,-0.603949 1.625127,-0.906047 0.801848,-0.302098 2.443815,-0.388128 3.207113,-0.690318 0.763302,-0.302191 1.409403,-0.848519 1.409403,-0.848519 l 0.143817,-0.704701 -1.179295,-0.5896496 c 0,0 -2.437306,0.3180046 -3.648304,0.5255476 -1.968998,0.337452 -5.877901,1.169478 -5.877901,1.169478 z m -1.078626,-9.5062786 1.00672,-0.172579 -2.847571,-2.93386108 -1.7258,0.316398 -1.46693,0.60402798 -2.444888,0.6903221 -2.876333,1.524454 m 6.50556,9.0685436 c 0,0 1.889554,0.372653 2.847427,0.447454 0.689419,0.05384 2.074555,0 2.074555,0 0,0 2.500122,-0.913132 3.783006,-1.261 1.966035,-0.533116 3.972566,-0.912611 5.97959,-1.261003 1.577597,-0.2738516 3.166115,-0.4906356 4.75927,-0.6508436 0.07861,-0.0079 0.157769,-0.0217 0.236509,-0.01528 0.88267,0.07192 1.44465,0.338873 2.588547,0.5982486 1.143894,0.259375 2.796552,0.637719 4.006736,1.016936 1.210179,0.379216 3.254197,1.220325 3.254197,1.220325 L 50.191585,8.5956724 c 0,0 0.832603,-0.450362 1.20893,-0.704153 0.317299,-0.213982 0.770633,-0.452397 1.043454,-0.625376 0.05349,-0.03456 -2.259942,-0.07293 -2.259942,-0.07293 0,0 2.688622,-0.294191 3.199401,-0.564233 0.542742,-0.286948 1.81149,-0.677347 1.81149,-0.677347 0,0 -0.3559,0.0078 -1.525406,0.0407 -1.169506,0.03294 -3.891313,0.135047 -5.491464,0.162712 -1.600151,0.02769 -2.536677,0.138884 -3.806406,0.164166 -0.141323,0.0028 -0.424053,-0.0014 -0.424053,-0.0014 0,0 -0.112844,0.0071 -0.168914,0.0019 -0.547754,-0.05066 -1.61885,-0.32049 -1.61885,-0.32049 l 0.691517,-0.650876 1.34236,-0.691517 -2.359296,-0.406775 -0.935585,0.162708 -1.708452,0.976262 c 0,0 -2.36645,-0.202874 -3.254207,-0.325419 -0.887757,-0.122545 -0.868222,-0.09745 -2.074554,-0.366098 -1.206331,-0.268643 -3.12282,-1.01419 -5.125362,-1.383037 -2.002541,-0.368848 -4.92221,-0.770513 -6.873655,-0.694759 -1.951446,0.07575 -3.164242,0.521636 -4.732549,0.85303 -2.099995,0.443741 -6.257357,1.519027 -6.257357,1.519027 l -3.0508131,0.162712 c -0.409935,0.02188 -0.825829,-0.0729 -1.231512,-0.01008 -0.946824,0.146605 -1.808371,0.638838 -2.732518,0.891664 -0.2557846,0.06998 -0.5288546,0.07803 -0.7766096,0.172579 -0.76999,0.293856 -1.752404,0.490189 -2.15725102,1.208061 -0.141371,0.250679 0.09522,0.582886 0.02876,0.862902 -0.110961,0.467551 -0.80798,0.799674 -0.69032,1.265585 0.288456,1.1422256 1.90450202,1.4091976 2.96262402,1.9271446 0.6835666,0.334604 2.1572506,0.747846 2.1572506,0.747846 l -3.3365476,1.63951 -0.661557,0.02876 c 0,0 -0.99491402,0.41084 -1.17929702,0.805374 -0.184383,0.394534 -0.142543,0.804538 0.115054,1.179295 0.257596,0.374757 0.91212602,0.574449 1.38064002,0.690323 0.468514,0.115873 0.862094,0.112723 1.351877,0.02876 0.489783,-0.08397 1.0014426,-0.360058 1.5244566,-0.575267 0.523015,-0.215209 1.229288,-0.336007 1.814135,-0.475021 0.584847,-0.139009 1.157359,-0.225034 1.637466,-0.330353 0.480108,-0.105319 0.795701,-0.181039 1.228655,-0.252797 0.432954,-0.07176 0.709078,-0.05261 1.3210701,-0.07642 0.611992,-0.02383 1.439909,-0.298855 2.15725,-0.460215 l 0.09386,0.01673 c 0.08907,0.311742 1.26923,3.438842 1.869618,3.854282 0.756756,0.523638 1.104083,0.233076 1.538839,0.186962 0.434755,-0.04613 0.47517,-0.210033 0.733465,-0.388313 0.258295,-0.17828 0.606979,-0.359895 0.819755,-0.675925 0.212775,-0.316031 0.203126,-0.720404 0.230108,-1.121776 0.02699,-0.401373 -0.08629,-1.26559 -0.08629,-1.26559 l -0.373925,-1.064238 -1.222441,-0.402692 -0.0081,-0.03252 c 1.154801,-0.328374 2.927935,-0.980774 2.927935,-0.980774 l 0.994572,-0.271287 m 0,0 c 0,0 0.689237,2.595847 1.264494,3.017117 0.575258,0.421265 0.580298,0.273438 1.01838,0.196412 0.438082,-0.07703 1.532985,-0.764032 1.532985,-0.764032 l -1.062454,-2.010499 1.352644,1.835365 c 0,0 0.76306,-0.455537 0.795593,-0.647262 0.03253,-0.191724 -1.627101,-1.850825 -1.627101,-1.850825 l 1.34438,0.250934"
     sodipodi:nodetypes="csscsscccscsscccsssssscccsccczzccczcscsssscsscsccscsacscccccccsssssccssssssscccsssssssssccsssssccccccccccccccc" />
</svg>
