<?xml version="1.0" encoding="UTF-8" standalone="no"?>
<!-- Created with Inkscape (http://www.inkscape.org/) -->

<svg
   width="5.7739811mm"
   height="2.1791875mm"
   viewBox="0 0 5.7739811 2.1791875"
   version="1.1"
   id="svg1398"
   inkscape:version="1.2.2 (732a01da63, 2022-12-09)"
   sodipodi:docname="Small_Pel_herring.svg"
   inkscape:export-filename="Small_Pel_herring.png"
   inkscape:export-xdpi="10997.611"
   inkscape:export-ydpi="10997.611"
   xmlns:inkscape="http://www.inkscape.org/namespaces/inkscape"
   xmlns:sodipodi="http://sodipodi.sourceforge.net/DTD/sodipodi-0.dtd"
   xmlns="http://www.w3.org/2000/svg"
   xmlns:svg="http://www.w3.org/2000/svg">
  <sodipodi:namedview
     id="namedview1400"
     pagecolor="#ffffff"
     bordercolor="#000000"
     borderopacity="0.25"
     inkscape:showpageshadow="2"
     inkscape:pageopacity="0.0"
     inkscape:pagecheckerboard="0"
     inkscape:deskcolor="#d1d1d1"
     inkscape:document-units="mm"
     showgrid="false"
     inkscape:zoom="32"
     inkscape:cx="8.359375"
     inkscape:cy="6.53125"
     inkscape:window-width="1649"
     inkscape:window-height="1024"
     inkscape:window-x="1994"
     inkscape:window-y="13"
     inkscape:window-maximized="0"
     inkscape:current-layer="layer2-5-6" />
  <defs
     id="defs1395" />
  <g
     inkscape:groupmode="layer"
     id="layer2-5-6"
     inkscape:label="herring"
     transform="matrix(-0.01825219,0,0,0.01740079,5.3560127,-0.70666777)"
     style="display:inline;fill:#ee6677;fill-opacity:1;stroke:#000000;stroke-opacity:1">
    <path
       style="fill:#ee6677;fill-opacity:1;stroke:#000000;stroke-width:2.24449174;stroke-dasharray:none;stroke-opacity:1"
       d="m -15.325753,101.17392 c 0,0 -4.529487,-1.957669 -6.34582,-0.83813 -0.827355,0.50996 -1.051666,1.78649 -0.95786,2.75385 0.107031,1.10374 0.900927,2.08076 1.676255,2.87358 1.440538,1.47304 3.457548,2.24969 5.268228,3.23277 0.815815,0.44293 1.722737,0.71251 2.514381,1.19732 1.844838,1.1298 3.2748668,2.8698 5.148495,3.95118 2.1697269,1.25228 6.944482,2.87357 6.944482,2.87357 0,0 4.9192836,3.16122 7.4234118,4.66957 2.3280378,1.40228 4.5082332,3.14726 7.0642142,4.0709 1.104583,0.39916 2.333179,0.31237 3.472241,0.59867 2.325637,0.58454 4.553487,1.50573 6.824749,2.27491 9.994014,3.38455 19.780087,7.42444 29.933113,10.29699 8.618284,2.43833 17.369072,4.50436 26.221404,5.86689 6.017727,0.92623 12.115592,1.7995 18.199333,1.55653 0.485149,-0.0194 0.977468,-0.39686 1.436788,-0.23947 3.339848,1.1444 4.706038,5.26782 7.183948,7.78261 2.35784,2.39293 4.58092,4.97672 7.30368,6.94448 2.60492,1.8826 5.29075,4.70498 8.501,4.54983 0.4312,-0.0208 1.07759,-0.71839 1.07759,-0.71839 l -6.82475,-5.20836 7.06422,4.90903 0.449,-2.24499 -7.63295,-5.59749 7.72275,5.4179 c 0,0 0.3148,-1.12991 0.41906,-1.70619 0.0608,-0.33612 0.11973,-1.01772 0.11973,-1.01772 l -5.92675,-3.11305 6.04648,2.93344 0.11974,-1.31705 -6.43562,-3.77157 6.58529,3.68177 c 0,0 -0.35779,-0.82543 -0.47893,-1.2572 -0.074,-0.26379 -0.14967,-0.80819 -0.14967,-0.80819 l -6.28595,-3.32257 6.16621,3.02324 c 0,0 -0.50099,-1.2128 -0.53879,-1.85585 -0.007,-0.12117 0.0599,-0.3592 0.0599,-0.3592 0,0 -0.0632,-0.52862 -0.14966,-0.77826 -0.11386,-0.32893 -0.47893,-0.92792 -0.47893,-0.92792 l -7.93228,-3.23278 7.84248,2.78378 c 0,0 -0.019,-0.5745 -0.11974,-0.83813 -0.0513,-0.13443 -0.23946,-0.3592 -0.23946,-0.3592 0,0 -0.51633,-0.61368 -0.71839,-0.95786 -0.199,-0.33898 -0.5779,-0.69718 -0.47893,-1.07759 0.0503,-0.19313 0.43731,-0.16403 0.47893,-0.3592 0.17139,-0.80374 -1.19733,-2.15518 -1.19733,-2.15518 0,0 4.39524,0.40823 6.58529,0.23947 8.63147,-0.66513 16.98325,-3.37334 25.50301,-4.90904 4.73961,-0.85432 9.63976,-0.9959 14.24816,-2.39464 2.51275,-0.76267 4.57007,-2.98139 7.18395,-3.23278 0.69381,-0.0667 1.37667,0.25125 2.03545,0.47893 5.19803,1.79652 14.96655,6.94448 14.96655,6.94448 l 1.91572,0.47893 1.55653,-1.19732 1.79598,-0.3592 0.23947,-0.83813 1.19732,-0.23946 -0.3592,-0.3592 2.51438,-0.71839 0.11974,-0.7184 0.83812,-0.11973 1.0776,-1.07759 0.83813,-0.47893 0.35919,-0.47893 1.01773,-0.0599 0.65853,-0.59866 1.19732,-0.23946 1.13746,-0.47893 -0.0599,-0.41907 1.43678,-0.29933 1.19733,-1.01773 0.47893,-0.65852 1.49665,-0.41907 0.47893,-0.65853 1.0776,-0.29933 -0.5388,-0.53879 1.55652,-0.29933 0.65853,-0.47893 0.5388,-0.7184 1.37692,-0.3592 -0.0599,-0.83812 1.49666,-0.0599 2.15518,-1.43679 1.25719,-0.1796 -0.0599,-0.89799 0.95786,-0.89799 0.83812,-0.1796 0.59867,-0.3592 v -0.5388 l 0.89799,-0.11973 0.41906,-1.07759 0.95786,-0.0599 0.0599,-0.53879 1.25719,-0.23947 0.23947,-0.65853 0.65852,-0.0599 0.29933,-1.13746 1.31706,-0.0599 0.59866,-0.95786 1.19733,-0.71839 0.71839,0.1796 0.1796,-0.5388 -0.3592,-0.77826 -1.73612,-0.1796 c 0,0 -3.6182,-0.67028 -5.44782,-0.83812 -0.65608,-0.0602 -1.97559,-0.0599 -1.97559,-0.0599 0,0 0.73775,-0.7342 1.19733,-0.95786 0.9401,-0.45751 2.01534,-0.59186 3.05317,-0.7184 3.42714,-0.41785 6.91861,-0.43325 10.35686,-0.11973 1.96431,0.17912 3.98321,0.38625 5.80702,1.13746 2.26195,0.93168 3.97555,2.86919 6.10636,4.0709 4.4166,2.49082 9.09463,4.50121 13.76923,6.46556 2.0025,0.84148 4.04663,1.58527 6.10636,2.27491 6.69352,2.24114 13.24549,5.67886 20.29465,6.04649 0.64882,0.0338 1.41604,0.0561 1.91571,-0.3592 0.51016,-0.42399 0.8489,-1.20547 0.7184,-1.85585 -0.10179,-0.50729 -0.74122,-0.7243 -1.07539,-1.11931 -3.17882,-3.75759 -5.58876,-8.12731 -8.80502,-11.85291 -2.11251,-2.44706 -4.37705,-4.78484 -6.85775,-6.85775 -2.24072,-1.87238 -5.16682,-2.89578 -7.19641,-4.99516 -0.72364,-0.74853 -1.46441,-1.60891 -1.69327,-2.62457 -0.28778,-1.27715 -0.14221,-2.75823 0.50798,-3.89453 0.95884,-1.675697 3.17307,-2.225168 4.57184,-3.555869 2.91414,-2.772327 5.6426,-5.79701 7.87371,-9.143672 l 3.38655,-5.079817 c 0,0 -0.99683,0.107937 -1.10063,-0.253991 -0.52813,-1.841484 2.88685,-2.552351 4.06386,-4.063854 1.15079,-1.477833 2.87856,-4.825827 2.87856,-4.825827 l -1.43928,0.507982 c 0,0 0.79442,-0.786014 1.18529,-1.185291 0.65625,-0.670367 1.94726,-2.031927 1.94726,-2.031927 l -1.35462,0.253991 1.60861,-1.8626 c 0,0 -0.40689,-0.06725 -0.59264,0 -0.4145,0.15007 -1.01597,0.846637 -1.01597,0.846637 0,0 0.5453,-0.804578 0.84664,-1.185291 0.18618,-0.235228 0.59264,-0.677309 0.59264,-0.677309 0,0 -1.38185,0.253378 -2.03192,0.507982 -0.92906,0.363869 -2.62457,1.439281 -2.62457,1.439281 l 1.01596,-0.761972 c 0,0 -11.01841,4.175082 -16.34008,6.688426 -1.5071,0.71178 -2.87682,1.699583 -4.40251,2.370582 -0.62908,0.276669 -1.94726,0.677309 -1.94726,0.677309 l -7.95838,4.233181 c 0,0 -3.6135,2.515008 -5.50314,3.640536 -2.88529,1.718564 -5.66354,3.808235 -8.88968,4.741163 -3.3435,0.966866 -6.93745,0.935037 -10.41363,0.761972 -10.67193,-0.531312 -21.09908,-3.421664 -31.57953,-5.503135 -6.60824,-1.31243 -19.72662,-4.402509 -19.72662,-4.402509 0,0 -21.46996,-4.524947 -32.25685,-6.519099 -4.3615,-0.806301 -13.12286,-2.201254 -13.12286,-2.201254 l 8.80502,-3.301882 c 0,0 -2.07304,-0.602798 -2.96323,-1.18529 -7.09694,-4.643837 -12.6336,-11.394641 -18.11801,-17.864026 -2.34423,-2.765244 -6.26511,-8.88968 -6.26511,-8.88968 l -0.33866,-1.354618 c 0,0 -1.16064,0.982719 -1.69327,1.523945 -1.83795,1.867621 -3.47961,3.919645 -5.16448,5.926454 -2.68381,3.196624 -5.38914,6.382495 -7.87372,9.736317 -1.94762,2.629006 -3.524636,5.521859 -5.503133,8.127708 -0.738565,0.972753 -1.347366,2.126999 -2.370581,2.7939 -0.665786,0.43394 -1.503662,0.537134 -2.285918,0.677309 -9.604939,1.721144 -19.536884,0.655631 -29.208951,1.947263 -7.076863,0.945062 -14.016723,2.730935 -20.996579,4.233181 -2.349156,0.505599 -4.66446,1.170215 -7.027081,1.608609 -3.924099,0.728134 -7.941441,0.900075 -11.852908,1.693273 -6.064665,1.22984 -12.014411,2.98702 -17.9486887,4.741163 -4.95530092,1.464763 -9.8282092,3.195316 -14.7314709,4.825826 -2.2610754,0.751888 -5.2433404,0.458991 -6.7730904,2.285918 -0.36641,0.437591 -0.317213,1.126047 -0.253991,1.693273 0.120752,1.083375 0.950057,1.98349 1.185291,3.04789 0.378433,1.712359 0.337098,5.250222 0.337098,5.250222 z"
       id="path5711-5"
       sodipodi:nodetypes="csssssscsaaaassssssccccccsccccccscccscscccscssscssssscccccccccccccccccccccccccccccccccccccccccccccccccccccscsssssssssssssssssscssccscccscscsccssccsssscsccssccssaassaaaaasssscc" />
    <ellipse
       style="fill:#ee6677;fill-opacity:1;stroke:#000000;stroke-width:2.24449174;stroke-dasharray:none;stroke-opacity:1"
       id="path5769-0"
       cx="0.46564993"
       cy="95.077255"
       rx="5.7147942"
       ry="5.3338079" />
  </g>
</svg>
