<?xml version="1.0" encoding="UTF-8" standalone="no"?>
<!-- Created with Inkscape (http://www.inkscape.org/) -->

<svg
   width="7.4956884mm"
   height="5.8929863mm"
   viewBox="0 0 7.4956882 5.8929863"
   version="1.1"
   id="svg3453"
   inkscape:version="1.2.2 (732a01da63, 2022-12-09)"
   sodipodi:docname="Small_MesoZoo.svg"
   xmlns:inkscape="http://www.inkscape.org/namespaces/inkscape"
   xmlns:sodipodi="http://sodipodi.sourceforge.net/DTD/sodipodi-0.dtd"
   xmlns="http://www.w3.org/2000/svg"
   xmlns:svg="http://www.w3.org/2000/svg">
  <sodipodi:namedview
     id="namedview3455"
     pagecolor="#ffffff"
     bordercolor="#000000"
     borderopacity="0.25"
     inkscape:showpageshadow="2"
     inkscape:pageopacity="0.0"
     inkscape:pagecheckerboard="0"
     inkscape:deskcolor="#d1d1d1"
     inkscape:document-units="mm"
     showgrid="false"
     inkscape:zoom="3.0217733"
     inkscape:cx="97.45933"
     inkscape:cy="100.27225"
     inkscape:window-width="1649"
     inkscape:window-height="1024"
     inkscape:window-x="2022"
     inkscape:window-y="93"
     inkscape:window-maximized="0"
     inkscape:current-layer="svg3453" />
  <defs
     id="defs3450" />
  <g
     id="g21141-48-9-1"
     transform="matrix(0.7078712,-0.37292085,0.38860148,0.67930756,-183.88146,-48.340178)"
     inkscape:export-filename="C:\Users\rden\OneDrive - Danmarks Tekniske Universitet\Ph.D\Project_2\Cephalopods_modelling\Figure\sketch_FEISTY.png"
     inkscape:export-xdpi="1010.2"
     inkscape:export-ydpi="1010.2"
     inkscape:label="LargeMesoZoo"
     style="display:inline;fill:#ddcb78;fill-opacity:1;stroke:#000000;stroke-opacity:1">
    <g
       id="g3702-6-7-1-0-6"
       style="display:inline;fill:#ddcb78;fill-opacity:1;stroke:#000000;stroke-opacity:1"
       transform="matrix(0.43340823,0,0,0.43340823,143.60764,148.20118)">
      <path
         d="m 68.351503,44.008853 c 0,0 -0.13645,-0.09003 -0.213777,-0.11177 -0.07735,-0.02178 -0.240584,-0.01598 -0.240584,-0.01598 0,0 0.02136,-0.100168 0.01632,-0.150334 -0.01014,-0.101092 -0.04878,-0.19875 -0.09259,-0.2904 -0.09642,-0.202022 -0.369023,-0.560874 -0.369023,-0.560874 0,0 -0.382281,-0.395304 -0.591849,-0.572492 -0.161455,-0.136441 -0.51018,-0.376103 -0.51018,-0.376103 0,0 -0.655844,-0.311614 -0.979349,-0.475907 -0.252569,-0.128298 -0.499146,-0.267764 -0.750572,-0.398045 -0.221233,-0.114842 -0.449881,-0.215401 -0.666891,-0.33804 -0.447656,-0.253057 -0.860678,-0.564151 -1.307277,-0.81902 -0.45164,-0.258199 -0.914348,-0.497869 -1.385702,-0.718173 -0.414331,-0.193455 -0.828826,-0.393831 -1.265636,-0.528995 -0.141655,-0.044 -0.287325,-0.0833 -0.435322,-0.09057 -0.09455,-0.0045 -0.282257,0.03027 -0.282257,0.03027 0,0 0.657275,0.282759 0.982815,0.431334 0.357981,0.163241 0.717066,0.32519 1.067066,0.505289 0.376091,0.193449 0.74639,0.398745 1.108342,0.617204 0.40201,0.242569 0.783349,0.517961 1.179767,0.769584 0.475733,0.302003 0.94767,0.611259 1.438429,0.887876 0.264316,0.148905 0.549078,0.259808 0.809607,0.414679 0.228447,0.135737 0.460882,0.271735 0.658367,0.449667 0.18496,0.166481 0.349471,0.359441 0.483355,0.569222 0.07027,0.110339 0.129694,0.230244 0.164276,0.356526 0.03479,0.126106 0.04094,0.390062 0.04094,0.390062 0,0 -0.264101,0.164123 -0.393998,0.249641 -0.156378,0.102879 -0.314487,0.203437 -0.463257,0.317048 -0.162677,0.124038 -0.46755,0.397638 -0.46755,0.397638 0,0 -0.276289,-0.119927 -0.423617,-0.132628 -0.06661,-0.0058 -0.1322,0.02284 -0.198904,0.02612 -0.195813,0.0096 -0.396013,0.02154 -0.587682,-0.01921 -0.31849,-0.06776 -0.606353,-0.238094 -0.904706,-0.368324 -0.165994,-0.07248 -0.492273,-0.229543 -0.492273,-0.229543 l 0.243132,0.255255 c 0,0 -0.132965,-0.0121 -0.196168,-0.03225 -0.110708,-0.03514 -0.313251,-0.151996 -0.313251,-0.151996 0,0 0.176435,0.195843 0.285335,0.26743 0.05435,0.03567 0.178996,0.0775 0.178996,0.0775 l -0.06578,0.02264 c 0,0 -0.249448,-0.100351 -0.381194,-0.120821 -0.112677,-0.01757 -0.342008,-3.53e-4 -0.342008,-3.53e-4 0,0 0.188595,0.08407 0.286437,0.117037 0.112289,0.03785 0.343625,0.09202 0.343625,0.09202 l -0.01899,0.06755 c 0,0 -0.195816,-0.07172 -0.298363,-0.07461 -0.130821,-0.0036 -0.385715,0.07412 -0.385715,0.07412 0,0 0.216848,0.125718 0.33785,0.145082 0.114308,0.0183 0.346014,-0.03043 0.346014,-0.03043 l 0.02447,0.04329 -0.324989,0.06834 -0.293306,-0.02756 0.327708,0.165044 0.185146,-0.02553 -0.270109,0.05181 c 0,0 0.260351,0.121736 0.399458,0.153259 0.141167,0.03226 0.288074,0.03367 0.432832,0.03495 0.280436,0.0029 0.561774,-0.01522 0.840066,-0.05125 0.218287,-0.0281 0.523915,-0.145818 0.647451,-0.128242 0.03316,0.0049 0.0464,0.05214 0.07811,0.06301 0.07789,0.02697 0.247252,-0.0034 0.247252,-0.0034 l -0.357051,0.556509 c 0,0 -0.07231,0.06198 -0.146545,0.01814 -0.07449,-0.04363 -0.191846,-0.113222 -0.191846,-0.113222 l 0.08931,0.121001 c 0,0 -0.110697,0.05181 -0.169926,0.05255 -0.04985,7.15e-4 -0.143841,-0.04039 -0.143841,-0.04039 l -0.03556,0.1268 c 0,0 -0.185336,0.04747 -0.271189,0.08803 -0.09945,0.04697 -0.277897,0.177354 -0.277897,0.177354 l 0.107066,0.08951 c 0,0 -0.205456,0.06541 -0.190205,0.09259 0.01519,0.02697 0.09257,0.07606 0.09257,0.07606 0,0 -0.26431,0.112893 -0.133365,0.11759 0.131002,0.0049 0.21797,0.02209 0.325735,0.0096 0.08297,-0.0096 0.167793,-0.02592 0.241717,-0.06448 0.0786,-0.04076 0.144002,-0.105265 0.203268,-0.171027 0.05576,-0.06179 0.14022,-0.206874 0.14022,-0.206874 l 0.05957,-0.03337 c 0,0 -0.270298,0.400739 -0.402185,0.60312 -0.121899,0.18714 -0.234418,0.380238 -0.359598,0.565012 -0.131907,0.194952 -0.411992,0.573253 -0.411992,0.573253 l 0.06072,0.108319 c 0,0 -0.230986,0.323 -0.326651,0.496578 -0.06066,0.110331 -0.156001,0.344039 -0.156001,0.344039 l 0.03137,0.131864 c 0,0 -0.204733,0.440419 -0.296388,0.665045 -0.03387,0.08298 -0.09368,0.251987 -0.09368,0.251987 l 0.08696,0.129209 -0.23844,0.831879 0.04314,0.0897 -0.01975,0.459798 -0.04492,0.04655 c 0,0 0.03279,0.05289 0.04546,0.08133 0.01904,0.04219 0.0453,0.131366 0.0453,0.131366 l 0.246386,-0.08137 0.03949,0.07047 c 0,0 -0.208321,0.120076 -0.290421,0.205787 -0.06158,0.06414 -0.14508,0.22375 -0.14508,0.22375 0,0 0.03842,0.09041 0.0344,0.137482 -0.01069,0.126683 -0.15306,0.349279 -0.15306,0.349279 l 0.0163,0.104893 -0.225397,0.347307 0.02392,0.09348 c 0,0 -0.297268,0.336596 -0.428603,0.518116 -0.06342,0.08792 -0.116313,0.182969 -0.173187,0.275381 -0.02611,0.04258 -0.04855,0.08768 -0.07718,0.128811 -0.09818,0.140958 -0.322837,0.401987 -0.322837,0.401987 0,0 -0.634596,0.165059 -0.943691,0.27302 -0.210685,0.07359 -0.419763,0.154391 -0.61904,0.254939 -0.116654,0.05869 -0.335159,0.202352 -0.335159,0.202352 0,0 0.151115,-2.19e-4 0.221221,-0.0245 0.04113,-0.0143 0.06918,-0.05614 0.110668,-0.06936 0.07248,-0.02299 0.15562,0.01085 0.227409,-0.01358 0.09257,-0.03152 0.152312,-0.127186 0.242533,-0.164521 0.04838,-0.02007 0.103454,-0.01701 0.154207,-0.0297 0.312691,-0.07753 0.92373,-0.283161 0.92373,-0.283161 l -0.05869,0.111237 c 0,0 -0.73896,0.377363 -1.116713,0.548368 -0.20904,0.09456 -0.433874,0.154565 -0.635325,0.263955 -0.08225,0.04457 -0.231732,0.158338 -0.231732,0.158338 0,0 0.226814,-0.02953 0.336458,-0.0605 0.259412,-0.07337 0.510118,-0.178447 0.753462,-0.294576 0.282053,-0.134741 0.81485,-0.464469 0.81485,-0.464469 l -0.04547,0.09675 c 0,0 -0.975928,0.717198 -1.434619,1.111388 -0.08913,0.07667 -0.168645,0.163611 -0.255478,0.242953 -0.07334,0.0672 -0.224071,0.197093 -0.224071,0.197093 0,0 0.238755,-0.107029 0.35635,-0.164482 0.100739,-0.04891 0.204892,-0.09217 0.298549,-0.153268 0.311592,-0.202726 0.582267,-0.462501 0.867575,-0.700545 0.160709,-0.13385 0.47559,-0.409284 0.47559,-0.409284 0,0 -0.584236,0.726321 -0.865253,1.098071 -0.0895,0.11828 -0.175911,0.238795 -0.26088,0.360145 -0.101076,0.144049 -0.296172,0.436786 -0.296172,0.436786 0,0 0.296161,-0.233158 0.427324,-0.367929 0.220501,-0.226496 0.405988,-0.484629 0.598942,-0.735001 0.184971,-0.240037 0.534972,-0.734778 0.534972,-0.734778 0,0 -0.272623,0.617741 -0.434616,0.913612 -0.120289,0.219351 -0.278993,0.416107 -0.398008,0.636207 -0.04856,0.09006 -0.128449,0.278815 -0.128449,0.278815 0,0 0.176123,-0.125181 0.248919,-0.20378 0.139166,-0.150179 0.247136,-0.327368 0.351442,-0.503477 0.12521,-0.211562 0.217258,-0.440922 0.327017,-0.660889 0.05815,-0.116116 0.125533,-0.227721 0.175377,-0.347655 0.03657,-0.08785 0.04039,-0.189819 0.08986,-0.271186 0.05725,-0.09402 0.165199,-0.148017 0.23082,-0.236251 0.09584,-0.129155 0.163751,-0.277525 0.23279,-0.422805 0.01141,-0.0239 0.01159,-0.05456 0.02991,-0.07374 0.05034,-0.05233 0.198708,-0.09004 0.198708,-0.09004"
         style="display:inline;fill:#ddcb78;fill-opacity:1;fill-rule:nonzero;stroke:#000000;stroke-width:0.0920252;stroke-linecap:butt;stroke-linejoin:miter;stroke-miterlimit:4;stroke-dasharray:none;stroke-opacity:1"
         id="path174912-9-1-0-5-6-8" />
      <g
         id="g174864-4-8-1-5-6-7"
         transform="matrix(0.04637792,0,0,-0.04637792,52.434624,66.092123)"
         style="display:inline;fill:#ddcb78;fill-opacity:1;stroke:#000000;stroke-opacity:1">
        <g
           id="g174866-0-0-7-2-2-4"
           transform="matrix(1,0,0,-1,0,841.88977)"
           style="fill:#ddcb78;fill-opacity:1;stroke:#000000;stroke-opacity:1">
          <path
             d="m 343.199,365.73 c 0,0 3.129,1.614 4.356,2.84 1.226,1.227 2.843,4.356 2.843,4.356 0,0 1.657,-1.457 2.649,-1.895 2.012,-0.875 4.254,-1.179 6.441,-1.324 4.817,-0.32 14.442,1.023 14.442,1.023 0,0 11.465,3.016 17.008,5.086 4.265,1.598 12.457,5.625 12.457,5.625 0,0 12.777,9.043 19.285,13.395 5.074,3.394 10.297,6.559 15.402,9.91 4.488,2.949 8.797,6.188 13.391,8.973 9.48,5.75 19.691,10.234 29.195,15.937 9.621,5.774 19.012,11.946 28.125,18.485 8.012,5.746 16.152,11.429 23.305,18.214 2.32,2.2 4.597,4.524 6.297,7.231 1.082,1.727 2.41,5.625 2.41,5.625 0,0 -12.258,-9.375 -18.485,-13.93 -6.847,-5.008 -13.679,-10.051 -20.757,-14.73 -7.606,-5.031 -15.375,-9.828 -23.305,-14.332 -8.801,-4.996 -18.004,-9.262 -26.918,-14.063 -10.699,-5.758 -21.492,-11.367 -31.875,-17.676 -5.586,-3.398 -10.676,-7.582 -16.34,-10.851 -4.965,-2.859 -9.973,-5.797 -15.402,-7.633 -5.082,-1.719 -10.446,-2.777 -15.805,-3.078 -2.816,-0.16 -5.699,-0.012 -8.438,0.668 -2.734,0.68 -7.765,3.348 -7.765,3.348 0,0 -0.297,6.699 -0.535,10.046 -0.289,4.024 -0.504,8.059 -1.075,12.051 -0.617,4.371 -2.542,12.992 -2.542,12.992 0,0 5.167,3.926 6.964,6.563 0.813,1.191 0.965,2.727 1.606,4.019 1.887,3.782 3.773,7.672 6.562,10.848 4.637,5.274 10.875,8.887 16.473,13.125 3.113,2.356 9.512,6.828 9.512,6.828 l -7.367,-1.875 c 0,0 1.632,2.375 2.679,3.348 1.824,1.711 6.16,4.289 6.16,4.289 0,0 -5.543,-1.254 -8.035,-2.547 -1.246,-0.644 -3.347,-2.543 -3.347,-2.543 l 0.265,1.473 c 0,0 4.52,3.633 6.297,5.89 1.516,1.938 3.613,6.43 3.613,6.43 0,0 -3.57,-2.66 -5.222,-4.152 -1.899,-1.711 -5.356,-5.489 -5.356,-5.489 l -1.074,1.071 c 0,0 3.422,2.926 4.555,4.82 1.449,2.422 2.679,8.035 2.679,8.035 0,0 -4.652,-2.75 -6.297,-4.82 -1.55,-1.957 -3.078,-6.832 -3.078,-6.832 h -1.07 l 2.141,6.832 3.617,5.223 -6.563,-4.418 -1.472,-3.75 1.875,5.625 c 0,0 -5.039,-3.614 -7.098,-5.895 -2.094,-2.312 -3.672,-5.062 -5.227,-7.766 -3.011,-5.246 -5.636,-10.73 -7.898,-16.339 -1.773,-4.403 -2.789,-11.391 -4.422,-13.528 -0.437,-0.574 -1.469,-0.324 -2.008,-0.804 -1.328,-1.18 -2.547,-4.688 -2.547,-4.688 l -6.695,12.59 c 0,0 -0.402,2.008 1.207,2.945 1.606,0.938 4.153,2.41 4.153,2.41 l -3.215,-0.398 c 0,0 0.191,2.625 0.8,3.75 0.516,0.941 2.278,2.273 2.278,2.273 L 345,456.578 c 0,0 1.063,3.981 1.207,6.027 0.164,2.364 -0.402,7.098 -0.402,7.098 l -2.813,-1.074 c 0,0 0.938,4.555 0.266,4.555 -0.668,0 -2.41,-0.938 -2.41,-0.938 0,0 0.672,6.16 -0.805,3.75 -1.473,-2.41 -2.711,-3.863 -3.613,-6.027 -0.696,-1.656 -1.285,-3.426 -1.34,-5.223 -0.059,-1.906 0.461,-3.816 1.07,-5.625 0.574,-1.703 2.41,-4.82 2.41,-4.82 v -1.473 c 0,0 -4.679,9.309 -7.097,13.926 -2.231,4.266 -4.676,8.422 -6.828,12.726 -2.274,4.536 -6.43,13.793 -6.43,13.793 h -2.68 c 0,0 -3.637,7.754 -5.89,11.383 -1.434,2.309 -4.825,6.563 -4.825,6.563 l -2.812,0.804 c 0,0 -6.117,8.497 -9.375,12.59 -1.203,1.512 -3.75,4.418 -3.75,4.418 l -3.348,-0.265 -13.125,13.257 -2.14,0.133 -8.438,5.223 -0.402,1.34 c 0,0 -1.344,-0.059 -2.012,0 -0.992,0.09 -2.945,0.535 -2.945,0.535 l -1.071,-5.488 h -1.742 c 0,0 -0.058,5.183 -0.805,7.632 -0.554,1.836 -2.675,5.09 -2.675,5.09 0,0 -2.106,0.231 -2.95,0.805 -2.269,1.535 -4.953,6.562 -4.953,6.562 l -2.144,0.801 -4.153,7.903 -2.007,0.535 c 0,0 -3.196,9.14 -5.223,13.527 -0.98,2.121 -2.211,4.121 -3.348,6.16 -0.527,0.946 -1.136,1.844 -1.609,2.813 -1.613,3.336 -4.148,10.312 -4.148,10.312 0,0 3.589,13.676 4.82,20.625 0.84,4.739 1.527,9.524 1.742,14.332 0.125,2.813 -0.269,8.438 -0.269,8.438 0,0 -1.594,-2.844 -1.875,-4.422 -0.165,-0.922 0.32,-1.891 0.132,-2.813 -0.328,-1.601 -1.843,-2.808 -2.14,-4.418 -0.387,-2.07 0.785,-4.203 0.535,-6.293 -0.133,-1.121 -0.774,-2.125 -1.07,-3.214 -1.84,-6.7 -4.422,-20.36 -4.422,-20.36 l -1.473,2.278 c 0,0 0.703,17.879 1.473,26.785 0.425,4.926 1.672,9.789 1.742,14.734 0.027,2.016 -0.535,6.027 -0.535,6.027 0,0 -1.836,-4.578 -2.41,-6.964 -1.36,-5.657 -2.028,-11.477 -2.415,-17.278 -0.441,-6.726 0.137,-20.222 0.137,-20.222 l -1.34,1.875 c 0,0 -3.187,25.918 -5.757,38.703 -0.5,2.484 -1.301,4.898 -1.875,7.367 -0.489,2.09 -1.34,6.293 -1.34,6.293 0,0 -0.508,-5.617 -0.672,-8.438 -0.141,-2.406 -0.426,-4.824 -0.266,-7.23 0.524,-7.996 2.555,-15.824 4.016,-23.707 0.824,-4.43 2.68,-13.258 2.68,-13.258 0,0 -7.493,18.652 -11.52,27.859 -1.277,2.926 -2.633,5.825 -4.016,8.704 -1.644,3.418 -5.089,10.179 -5.089,10.179 0,0 1.261,-8.031 2.41,-11.922 1.933,-6.531 4.828,-12.746 7.5,-19.015 2.562,-6.012 8.172,-17.813 8.172,-17.813 0,0 -8.743,11.645 -12.59,17.813 -2.856,4.574 -4.887,9.637 -7.77,14.195 -1.18,1.863 -3.883,5.359 -3.883,5.359 0,0 0.496,-4.632 1.203,-6.832 1.36,-4.199 3.551,-8.101 5.762,-11.918 2.656,-4.585 5.996,-8.742 8.973,-13.125 1.57,-2.316 2.957,-4.765 4.687,-6.964 1.27,-1.618 3.145,-2.766 4.153,-4.555 1.164,-2.066 1.039,-4.664 2.008,-6.832 1.417,-3.164 3.488,-6.004 5.492,-8.836 0.328,-0.469 0.906,-0.793 1.07,-1.34 0.457,-1.5 -0.402,-4.687 -0.402,-4.687"
             style="fill:#ddcb78;fill-opacity:1;fill-rule:nonzero;stroke:#000000;stroke-width:1.98425;stroke-linecap:butt;stroke-linejoin:miter;stroke-miterlimit:4;stroke-dasharray:none;stroke-opacity:1"
             id="path174868-0-0-8-4-7-0" />
        </g>
        <g
           id="g174870-2-8-0-0-9-3"
           transform="matrix(1,0,0,-1,0,841.88977)"
           style="fill:#ddcb78;fill-opacity:1;stroke:#000000;stroke-opacity:1">
          <path
             d="m 516.883,461.379 c 0,0 -3.203,8.301 -5.113,12.309 -0.743,1.558 -2.954,3.976 -2.465,4.546 0.707,0.829 1.937,-1.078 2.652,-1.894 3.356,-3.817 7.199,-13.445 7.199,-13.445"
             style="fill:#ddcb78;fill-opacity:1;fill-rule:nonzero;stroke:#000000;stroke-width:1.98425;stroke-linecap:butt;stroke-linejoin:miter;stroke-miterlimit:4;stroke-dasharray:none;stroke-opacity:1"
             id="path174872-0-7-9-0-5-7" />
        </g>
        <g
           id="g174874-0-0-9-8-3-0"
           transform="matrix(1,0,0,-1,0,841.88977)"
           style="fill:#ddcb78;fill-opacity:1;stroke:#000000;stroke-opacity:1">
          <path
             d="m 527.926,469.465 c 0,0 2.691,3.027 2.406,4.793 -0.781,4.785 -4.547,24.433 -4.547,24.433 l 7.953,-25.003"
             style="fill:#ddcb78;fill-opacity:1;fill-rule:nonzero;stroke:#000000;stroke-width:1.98425;stroke-linecap:butt;stroke-linejoin:miter;stroke-miterlimit:4;stroke-dasharray:none;stroke-opacity:1"
             id="path174876-3-8-5-3-3-9" />
        </g>
        <g
           id="g174878-1-9-3-8-5-8"
           transform="matrix(1,0,0,-1,0,841.88977)"
           style="fill:#ddcb78;fill-opacity:1;stroke:#000000;stroke-opacity:1">
          <path
             d="m 359.488,369.707 c 0,0 3.328,-5.512 6.071,-8.352 0.722,-0.75 2.812,-5.96 2.812,-5.96 0,0 -0.039,3.109 -0.535,4.554 -0.953,2.766 -5.359,9.442 -5.359,9.442"
             style="fill:#ddcb78;fill-opacity:1;fill-rule:nonzero;stroke:#000000;stroke-width:1.98425;stroke-linecap:butt;stroke-linejoin:miter;stroke-miterlimit:4;stroke-dasharray:none;stroke-opacity:1"
             id="path174880-8-0-6-2-8-9" />
        </g>
        <g
           id="g174882-3-0-1-51-8-3"
           transform="matrix(1,0,0,-1,0,841.88977)"
           style="fill:#ddcb78;fill-opacity:1;stroke:#000000;stroke-opacity:1">
          <path
             d="m 383.168,373.406 c 0,0 3.687,-4.73 5.09,-7.363 0.859,-1.609 2.012,-5.09 2.012,-5.09 0,0 -2.332,3.449 -3.618,5.09 -1.601,2.039 -5.089,5.891 -5.089,5.891 l -0.805,0.804"
             style="fill:#ddcb78;fill-opacity:1;fill-rule:nonzero;stroke:#000000;stroke-width:1.98425;stroke-linecap:butt;stroke-linejoin:miter;stroke-miterlimit:4;stroke-dasharray:none;stroke-opacity:1"
             id="path174884-8-8-6-5-7-7" />
        </g>
        <g
           id="g174886-6-2-9-01-8-6"
           transform="matrix(1,0,0,-1,0,841.88977)"
           style="fill:#ddcb78;fill-opacity:1;stroke:#000000;stroke-opacity:1">
          <path
             d="m 392.879,376.355 c 0,0 1.266,-0.046 1.809,-0.335 1.546,-0.825 2.292,-2.688 3.683,-3.75 0.832,-0.637 1.926,-0.887 2.746,-1.54 0.52,-0.414 0.656,-0.789 1.27,-1.105 0.215,-0.109 0.597,-0.297 0.738,-0.102 0.223,0.309 0.227,0.793 0.066,1.141 -0.199,0.434 -0.761,0.574 -1.136,0.867 -1.375,1.078 -3.035,1.887 -4.086,3.282 -0.348,0.464 -0.617,1.031 -0.668,1.609 -0.074,0.82 0.535,2.41 0.535,2.41 0,0 1.687,-0.129 2.477,-0.402 1.085,-0.375 2.054,-1.039 3.011,-1.672 0.875,-0.582 1.571,-1.418 2.481,-1.945 0.664,-0.387 1.504,-0.438 2.14,-0.868 0.59,-0.402 0.973,-1.207 1.641,-1.543 0.613,-0.304 0.926,-0.062 1.105,0.336 0.247,0.547 -0.402,1.407 -0.804,1.606 -0.399,0.203 -1.61,0.578 -2.344,1.008 -1.91,1.113 -5.223,3.75 -5.289,4.015 -0.066,0.27 1.141,2.078 1.141,2.078"
             style="fill:#ddcb78;fill-opacity:1;fill-rule:nonzero;stroke:#000000;stroke-width:1.98425;stroke-linecap:butt;stroke-linejoin:miter;stroke-miterlimit:4;stroke-dasharray:none;stroke-opacity:1"
             id="path174888-8-9-5-8-9-5" />
        </g>
        <g
           id="g174890-7-7-2-3-7-5"
           transform="matrix(1,0,0,-1,0,841.88977)"
           style="fill:#ddcb78;fill-opacity:1;stroke:#000000;stroke-opacity:1">
          <path
             d="m 414.711,389.211 c 0,0 4.766,-2.742 7.164,-4.086 2.801,-1.562 6.313,-4.172 8.438,-4.621 0.355,-0.074 0.933,0.5 0.738,0.805 -0.828,1.293 -5.543,3.339 -8.305,5.023 -1.789,1.09 -4.098,1.609 -5.359,3.281 -0.25,0.332 -0.332,1.203 -0.332,1.203"
             style="fill:#ddcb78;fill-opacity:1;fill-rule:nonzero;stroke:#000000;stroke-width:1.98425;stroke-linecap:butt;stroke-linejoin:miter;stroke-miterlimit:4;stroke-dasharray:none;stroke-opacity:1"
             id="path174892-5-9-0-6-0-7" />
        </g>
        <g
           id="g174894-1-6-4-0-7-3"
           transform="matrix(1,0,0,-1,0,841.88977)"
           style="fill:#ddcb78;fill-opacity:1;stroke:#000000;stroke-opacity:1">
          <path
             d="m 438.816,405.281 c 0,0 2.684,-1.422 4.086,-2.008 2.575,-1.074 5.223,-1.976 7.903,-2.746 0.914,-0.261 2.777,-0.636 2.777,-0.636 0.398,0.093 1.051,0.55 0.703,0.769 0,0 -2.945,0.672 -3.347,0.805 -0.403,0.133 -5.34,1.726 -7.633,3.281 -0.785,0.531 -2.012,2.008 -2.012,2.008"
             style="fill:#ddcb78;fill-opacity:1;fill-rule:nonzero;stroke:#000000;stroke-width:1.98425;stroke-linecap:butt;stroke-linejoin:miter;stroke-miterlimit:4;stroke-dasharray:none;stroke-opacity:1"
             id="path174896-2-4-7-2-7-3" />
        </g>
        <g
           id="g174898-0-2-1-9-8-9"
           transform="matrix(1,0,0,-1,0,841.88977)"
           style="fill:#ddcb78;fill-opacity:1;stroke:#000000;stroke-opacity:1">
          <path
             d="m 456.863,416.832 c 0,0 4.477,-2.5 6.797,-3.582 2.84,-1.324 7.828,-3.73 8.707,-3.547 0.274,0.055 0.488,0.469 0.403,0.735 -0.215,0.64 -2.805,1.578 -4.219,2.343 -2.731,1.481 -6.696,1.66 -8.238,4.356 -0.243,0.426 0.066,1.472 0.066,1.472"
             style="fill:#ddcb78;fill-opacity:1;fill-rule:nonzero;stroke:#000000;stroke-width:1.98425;stroke-linecap:butt;stroke-linejoin:miter;stroke-miterlimit:4;stroke-dasharray:none;stroke-opacity:1"
             id="path174900-4-7-3-5-4-7" />
        </g>
        <g
           id="g174902-4-8-9-4-0-7"
           transform="matrix(1,0,0,-1,0,841.88977)"
           style="fill:#ddcb78;fill-opacity:1;stroke:#000000;stroke-opacity:1">
          <path
             d="m 466.441,421.957 c 0,0 1.969,-0.402 2.911,-0.738 1.789,-0.637 4.824,-2.141 5.156,-2.41 0.336,-0.266 4.824,-2.075 7.301,-2.946 2.043,-0.718 5.476,-2.199 6.226,-1.875 0.32,0.137 0.637,0.633 0.469,0.938 0,0 -3.254,1.597 -4.953,2.211 -1.571,0.562 -3.258,0.765 -4.824,1.336 -2.008,0.738 -5.559,2.547 -5.825,2.679 -0.269,0.137 -2.117,0.821 -2.613,1.743 -0.18,0.335 0,1.136 0,1.136"
             style="fill:#ddcb78;fill-opacity:1;fill-rule:nonzero;stroke:#000000;stroke-width:1.98425;stroke-linecap:butt;stroke-linejoin:miter;stroke-miterlimit:4;stroke-dasharray:none;stroke-opacity:1"
             id="path174904-6-8-0-3-5-7" />
        </g>
        <g
           id="g174906-4-1-9-4-3-7"
           transform="matrix(1,0,0,-1,0,841.88977)"
           style="fill:#ddcb78;fill-opacity:1;stroke:#000000;stroke-opacity:1">
          <path
             d="m 501.629,443.051 c 0,0 2.375,-3.985 3.684,-5.895 1.011,-1.472 3.148,-3.949 3.214,-4.285 0.067,-0.336 3.883,-6.629 4.153,-8.234 0.265,-1.61 1.136,-3.953 1.136,-3.953 0,0 0.446,3.144 0.204,4.687 -0.352,2.211 -2.079,5.828 -2.344,6.297 -0.27,0.469 -1.387,2.961 -2.414,4.219 -0.617,0.758 -1.028,1.261 -1.473,1.941 -0.625,0.961 -1.672,2.61 -1.672,3.012 0,0.402 -0.523,1.445 -0.804,2.078 -0.301,0.676 -1.606,1.539 -1.606,1.539"
             style="fill:#ddcb78;fill-opacity:1;fill-rule:nonzero;stroke:#000000;stroke-width:1.98425;stroke-linecap:butt;stroke-linejoin:miter;stroke-miterlimit:4;stroke-dasharray:none;stroke-opacity:1"
             id="path174908-0-2-0-8-9-4" />
        </g>
        <g
           id="g174910-0-1-2-8-7-2"
           transform="matrix(-0.561174,1,-1,-0.561174,0,841.88977)"
           style="fill:#ddcb78;fill-opacity:1;stroke:#000000;stroke-opacity:1" />
        <g
           id="g174914-0-8-4-6-1-1"
           transform="matrix(-0.561174,1,-1,-0.561174,0,841.88977)"
           style="fill:#ddcb78;fill-opacity:1;stroke:#000000;stroke-opacity:1">
          <path
             d="m -273.144,-21.508 c 0,0 -2.79,7.238 -4.459,10.737 -0.649,1.356 -2.575,3.465 -2.147,3.963 0.615,0.721 1.687,-0.94 2.311,-1.653 2.928,-3.33 6.278,-11.726 6.278,-11.726"
             style="fill:#ddcb78;fill-opacity:1;fill-rule:nonzero;stroke:#000000;stroke-width:1.7304;stroke-linecap:butt;stroke-linejoin:miter;stroke-miterlimit:4;stroke-dasharray:none;stroke-opacity:1"
             id="path174916-1-2-6-6-2-3" />
        </g>
        <g
           id="g174918-2-1-2-3-3-8"
           transform="matrix(-0.561174,1,-1,-0.561174,0,841.88977)"
           style="fill:#ddcb78;fill-opacity:1;stroke:#000000;stroke-opacity:1">
          <path
             d="m -263.514,-14.455 c 0,0 2.348,2.639 2.098,4.178 -0.68,4.175 -3.965,21.307 -3.965,21.307 l 6.937,-21.803"
             style="fill:#ddcb78;fill-opacity:1;fill-rule:nonzero;stroke:#000000;stroke-width:1.7304;stroke-linecap:butt;stroke-linejoin:miter;stroke-miterlimit:4;stroke-dasharray:none;stroke-opacity:1"
             id="path174920-8-4-4-3-8-5" />
        </g>
        <g
           id="g174922-4-4-6-8-8-3"
           transform="matrix(-0.561174,1,-1,-0.561174,0,841.88977)"
           style="fill:#ddcb78;fill-opacity:1;stroke:#000000;stroke-opacity:1">
          <path
             d="m -410.404,-101.45 c 0,0 2.903,-4.809 5.294,-7.287 0.631,-0.651 2.454,-5.198 2.454,-5.198 0,0 -0.034,2.711 -0.466,3.973 -0.83,2.411 -4.673,8.232 -4.673,8.232"
             style="fill:#ddcb78;fill-opacity:1;fill-rule:nonzero;stroke:#000000;stroke-width:1.7304;stroke-linecap:butt;stroke-linejoin:miter;stroke-miterlimit:4;stroke-dasharray:none;stroke-opacity:1"
             id="path174924-4-7-0-7-1-3" />
        </g>
        <g
           id="g174926-3-0-4-6-2-9"
           transform="matrix(-0.561174,1,-1,-0.561174,0,841.88977)"
           style="fill:#ddcb78;fill-opacity:1;stroke:#000000;stroke-opacity:1">
          <path
             d="m -389.75,-98.224 c 0,0 3.212,-4.127 4.438,-6.424 0.748,-1.404 1.751,-4.44 1.751,-4.44 0,0 -2.032,3.012 -3.152,4.441 -1.396,1.78 -4.437,5.139 -4.437,5.139 l -0.705,0.7"
             style="fill:#ddcb78;fill-opacity:1;fill-rule:nonzero;stroke:#000000;stroke-width:1.7304;stroke-linecap:butt;stroke-linejoin:miter;stroke-miterlimit:4;stroke-dasharray:none;stroke-opacity:1"
             id="path174928-4-7-9-8-7-6" />
        </g>
        <g
           id="g174930-4-8-4-2-3-0"
           transform="matrix(-0.561174,1,-1,-0.561174,0,841.88977)"
           style="fill:#ddcb78;fill-opacity:1;stroke:#000000;stroke-opacity:1">
          <path
             d="m -381.284,-95.654 c 0,0 1.105,-0.043 1.578,-0.292 1.348,-0.718 1.998,-2.344 3.211,-3.271 0.727,-0.557 1.679,-0.774 2.395,-1.344 0.454,-0.36 0.576,-0.686 1.108,-0.962 0.188,-0.097 0.521,-0.257 0.643,-0.087 0.193,0.267 0.196,0.691 0.06,0.99 -0.175,0.379 -0.667,0.503 -0.995,0.761 -1.197,0.938 -2.644,1.644 -3.562,2.862 -0.304,0.405 -0.54,0.897 -0.581,1.401 -0.064,0.715 0.465,2.102 0.465,2.102 0,0 1.472,-0.111 2.162,-0.35 0.946,-0.327 1.792,-0.908 2.626,-1.462 0.762,-0.506 1.37,-1.233 2.162,-1.694 0.582,-0.334 1.31,-0.38 1.867,-0.758 0.513,-0.347 0.849,-1.051 1.431,-1.342 0.533,-0.268 0.809,-0.056 0.964,0.291 0.216,0.476 -0.35,1.227 -0.702,1.401 -0.35,0.177 -1.4,0.505 -2.043,0.877 -1.669,0.972 -4.555,3.271 -4.612,3.503 -0.059,0.236 0.992,1.81 0.992,1.81"
             style="fill:#ddcb78;fill-opacity:1;fill-rule:nonzero;stroke:#000000;stroke-width:1.7304;stroke-linecap:butt;stroke-linejoin:miter;stroke-miterlimit:4;stroke-dasharray:none;stroke-opacity:1"
             id="path174932-8-9-9-9-2-9" />
        </g>
        <g
           id="g174934-6-3-7-6-2-6"
           transform="matrix(-0.561174,1,-1,-0.561174,0,841.88977)"
           style="fill:#ddcb78;fill-opacity:1;stroke:#000000;stroke-opacity:1">
          <path
             d="m -362.247,-84.443 c 0,0 4.158,-2.392 6.251,-3.563 2.439,-1.361 5.502,-3.638 7.357,-4.027 0.31,-0.068 0.813,0.431 0.642,0.699 -0.722,1.128 -4.833,2.915 -7.241,4.38 -1.561,0.95 -3.572,1.403 -4.671,2.863 -0.221,0.288 -0.293,1.051 -0.293,1.051"
             style="fill:#ddcb78;fill-opacity:1;fill-rule:nonzero;stroke:#000000;stroke-width:1.7304;stroke-linecap:butt;stroke-linejoin:miter;stroke-miterlimit:4;stroke-dasharray:none;stroke-opacity:1"
             id="path174936-7-6-9-9-8-0" />
        </g>
        <g
           id="g174938-2-1-7-5-2-8"
           transform="matrix(-0.561174,1,-1,-0.561174,0,841.88977)"
           style="fill:#ddcb78;fill-opacity:1;stroke:#000000;stroke-opacity:1">
          <path
             d="m -341.222,-70.429 c 0,0 2.34,-1.239 3.561,-1.749 2.243,-0.938 4.556,-1.724 6.891,-2.394 0.798,-0.229 2.423,-0.555 2.423,-0.555 0.35,0.081 0.917,0.478 0.615,0.671 0,0 -2.571,0.583 -2.919,0.7 -0.353,0.116 -4.66,1.506 -6.66,2.862 -0.683,0.462 -1.751,1.753 -1.751,1.753"
             style="fill:#ddcb78;fill-opacity:1;fill-rule:nonzero;stroke:#000000;stroke-width:1.7304;stroke-linecap:butt;stroke-linejoin:miter;stroke-miterlimit:4;stroke-dasharray:none;stroke-opacity:1"
             id="path174940-0-6-0-4-3-7" />
        </g>
        <g
           id="g174942-6-4-3-6-2-6"
           transform="matrix(-0.561174,1,-1,-0.561174,0,841.88977)"
           style="fill:#ddcb78;fill-opacity:1;stroke:#000000;stroke-opacity:1">
          <path
             d="m -325.486,-60.354 c 0,0 3.906,-2.18 5.93,-3.124 2.477,-1.156 6.827,-3.253 7.591,-3.096 0.239,0.05 0.427,0.413 0.349,0.644 -0.186,0.558 -2.446,1.376 -3.677,2.044 -2.381,1.289 -5.838,1.444 -7.182,3.796 -0.214,0.37 0.057,1.284 0.057,1.284"
             style="fill:#ddcb78;fill-opacity:1;fill-rule:nonzero;stroke:#000000;stroke-width:1.7304;stroke-linecap:butt;stroke-linejoin:miter;stroke-miterlimit:4;stroke-dasharray:none;stroke-opacity:1"
             id="path174944-8-1-2-3-9-5" />
        </g>
        <g
           id="g174946-2-1-1-0-0-9"
           transform="matrix(-0.561174,1,-1,-0.561174,0,841.88977)"
           style="fill:#ddcb78;fill-opacity:1;stroke:#000000;stroke-opacity:1">
          <path
             d="m -317.134,-55.884 c 0,0 1.717,-0.351 2.54,-0.645 1.56,-0.555 4.206,-1.868 4.497,-2.101 0.291,-0.234 4.207,-1.81 6.367,-2.569 1.783,-0.63 4.775,-1.918 5.429,-1.637 0.279,0.121 0.556,0.552 0.408,0.818 0,0 -2.836,1.392 -4.32,1.928 -1.369,0.491 -2.84,0.668 -4.204,1.168 -1.751,0.639 -4.849,2.218 -5.08,2.335 -0.236,0.117 -1.85,0.714 -2.278,1.517 -0.155,0.294 -0.001,0.993 -0.001,0.993"
             style="fill:#ddcb78;fill-opacity:1;fill-rule:nonzero;stroke:#000000;stroke-width:1.7304;stroke-linecap:butt;stroke-linejoin:miter;stroke-miterlimit:4;stroke-dasharray:none;stroke-opacity:1"
             id="path174948-0-0-4-3-8-7" />
        </g>
        <g
           id="g174950-6-1-6-5-3-3"
           transform="matrix(-0.561174,1,-1,-0.561174,0,841.88977)"
           style="fill:#ddcb78;fill-opacity:1;stroke:#000000;stroke-opacity:1">
          <path
             d="m -286.446,-37.492 c 0,0 2.072,-3.471 3.211,-5.138 0.881,-1.284 2.745,-3.447 2.804,-3.738 0.06,-0.291 3.389,-5.781 3.621,-7.184 0.234,-1.401 0.993,-3.444 0.993,-3.444 0,0 0.386,2.74 0.174,4.09 -0.304,1.928 -1.81,5.078 -2.042,5.486 -0.235,0.409 -1.21,2.585 -2.103,3.68 -0.542,0.663 -0.898,1.101 -1.284,1.693 -0.549,0.839 -1.461,2.277 -1.462,2.629 10e-4,0.351 -0.454,1.259 -0.699,1.81 -0.264,0.589 -1.403,1.342 -1.403,1.342"
             style="fill:#ddcb78;fill-opacity:1;fill-rule:nonzero;stroke:#000000;stroke-width:1.7304;stroke-linecap:butt;stroke-linejoin:miter;stroke-miterlimit:4;stroke-dasharray:none;stroke-opacity:1"
             id="path174952-7-5-8-1-8-9" />
        </g>
        <g
           id="g174954-7-2-1-2-2-7"
           transform="matrix(1,0,0,-1,0,841.88977)"
           style="fill:#ddcb78;fill-opacity:1;stroke:#000000;stroke-opacity:1">
          <path
             d="m 215.34,585.25 -0.742,-0.602 -0.344,0.071"
             style="fill:#ddcb78;fill-opacity:1;fill-rule:nonzero;stroke:#000000;stroke-width:1.98425;stroke-linecap:butt;stroke-linejoin:miter;stroke-miterlimit:4;stroke-dasharray:none;stroke-opacity:1"
             id="path174956-6-9-0-2-7-4" />
        </g>
      </g>
    </g>
  </g>
</svg>
